<svg xmlns="http://www.w3.org/2000/svg" viewBox="0 0 503.2 231.87"><path name="Innere Stadt" d="M371.43,121.48l.22.2v.05l2.93,2.7.39.34.66.64,1.22.98,1.83,1.13.05.05,1.93.93,3.65,1.52,1.33.54,1.22.34,1.22.25,1.27.2,1.33.1,1.27.05,1.27-.1.39-.05.88-.1,1.11-.2,4.31-.69,1.16-.15.5-.1h1.16l.83-.05,1.6.15,1.22.1,1.05.25.94.54.66.64.44.93.05.3.17,1.32-.11,1.42v.2l-.06,1.03-.05.83-.22,1.72-.27,1.18-1.05,1.08-.89.74h-.06l-.88.44-3.54,1.76-1.49.74-1.6.3-4.7-.54-6.96-.78-.49-.05h-.55l-2.32.05h-.5l-.33-.59-.11-.29-.06-.15-.05-.34-1.49-.49-.11.1-.11.05-.16-.05-.61.1-.27.05-.22.05h-.22l-.39-.05-.33-.05v-.05h-.16l-1.33.05v.1h-.28l-.11.05h-.99v-.1h-1l-.05.05-.22.15-.28.15-.33.1-.33.05h-.44l-.27-.05-.22-.05-.28-.1v.05l-.05-.05-.06-.1-.39.1-.44.05.11.35-.44.59-.72.15-.66-.34-.06-.2v-.15l-1.55.39-.33-.15-.39.05-1.11.25h-.05l.05.15.06.2-1.6,2.8-.39.64-.06.05-.22.05-.17-.1-1.99-2.31-.22-.88-.28-1.08-.66.1-1.83.39-2.32.54h-.11l-.06.05h-.06l-.06.05-.05.05-.06.05-.06.05-.05.05v.1h-.06l-.17-.35-.11-.29-.11-.2.27-.44.06-.15.17-.34.06-.1v-.1l.11-.29.06-.05.11-.54.11-.34.22-.69.11-.34.11-.3-.11-.1.05-.05v-.05l-.05-.05h-.06v.05l-.11-.1.05-.34.06-.54-.22-.69-.17-.39.17-.05-.5-1.47h0s-.94-2.99-.94-2.99l.05-.05.44-.15,1.11-.49.61.93h.11l.33-.2.28-.15.28-.2,1.77-1.17.33-.25.27-.25.28-.25.28-.29.22-.25.28-.34.17-.34.27-.44-.88-.49.28-.54.17-.34.22-.69.17-.49,1.72.05.22-.69.66-.54.61-.49,2.38-1.96.5-.44.11.1,1.49-1.22.11-.05.61-.54Z" style="fill:#cecece; fill-rule:evenodd; stroke-width:0px;"/><path name="Kirchenfeld-Schosshalde" d="M414.19,135.71l-.22.1-.22.1-.44-.05h-.22l-.22-.05h-.17v-.1h-.17l-.22-.2-.05.05-.11-.1-.22-.39v-.69l.06-1.08-.22-.2v-.25l-.05-.15-.22-.2-.17-.05-.17-.05-.11.05-.17.15v.05l-.06-.05-.28.2-.17.05-.89.1.17,1.32-.11,1.42v.2l-.06,1.03-.05.83-.22,1.72-.28,1.18-1.05,1.08-.88.74h-.06l-.88.44-3.54,1.77-1.49.74-1.6.29-4.7-.54-6.96-.78-.5-.05h-.55l-2.32.05h-.5l-1.11.29-1.05.39-1.16.44-1.05.59-.66,1.08-.72,1.03-.06.39-.11.84-.72,4.32-.55,3.09-.94,5.5-.17.93-.5,2.99-.22,1.23-.22,1.23-.11,1.18-.05,1.23.05,1.23.11,1.18.22,1.23.33,1.13.44,1.13.5,1.18.55,1.08.77.98.88.93.77.74,1.05.78,1.11.69.55.34.89.39,1.05.34,2.49.64,1.94.39,2.21.24,2.16.05,2.1-.24,1.44-.49,1.27-.64,6.63-3.68,1.77-.83,1.99-.39,2.05.1.83.25,1.05.34,1.77.93,1.38,1.32.89,1.67,2.05,4.81.66,1.38.94,1.18,1.88,2.01,2.54,2.31,12.55,10.06,3.76,3.83.66-.44.39-.3.28-.2-1.05-2.45-1.05-2.65-3.1-4.27.06-.34-.06-.79-.22-.64.39-.2.11-.1,1.66-.69,1.82-.69.5-.2h.06l3.7-3.24,3.87-3.38v-.1l-.06-.25-.17-.64-.05-.39-.06-.25-.17-.74v-.05l1.49-.44,1.66-.54.72-.2-.55-.79-.11-.15-.44-.59-.33-.44-.11-.54-.06-.49.22-.1,1.33-.59.33-.15.22-.1.44-.2.06-.05h.05l.55-.29.11-.05-.66-.79,2.43-1.52h.17l.11.15.06-.2.11-.2.66-.93.11-.2.83-.88.94-1.03.17-.15.22-.25-1.22-.69-2.43-1.37v-.1l.05-.1.72-.2,1.22-.29,1.44-.29.55-.2.39-.1.88-.39.55-.15.55-.1,1.49.1,1.38.15.77.1,1.71.59.55.15h1.66l3.37.25.83.2,1.88.39,1.55.39.39.05.66.15.61.15-.06-.2-.17-.64-.17-.49-.17-.49,1.77.2.83.05.55.05,1.49.1h.28l2.21.29,1.99.44h.17l.22-.59.17-.39.11-.24.33-.59,1.05-1.87.05-.05v-.05l1.33-2.31,3.82.98.05.05h.17l.05.05h.05l.06.05h.06l.05.05h.06l.05.05h.06l.05.05h.05l.06.05h.06l.17.15h.05l.06.05.06.05.05.05.05.05.06.05.33.29v.05l.05.05,1.16,1.42.55-.98.83-1.47.17-.25.55-1.03.72.29.72.34.72-1.32.06-.15.28-.64.44-.93v-.15l-.99-.74-.77-.59-.72-.49-.33-.29-.66-.49-.72-.64-.22-.15-1.05-.98-.61-.59-.77-.74-.39-.39-.39-.39-.66-.83-1.05-1.03-.5-.59-.39-.59-1.66,2.26-.05.1-1.38-1.52-1.33-1.03-.61-.44-1.27-1.52-.44-.54-.61-.54-.39-.29-.17-.15-.61-.34-1.11-.29-.39-.05-.39-.1-.83-.29-.94-.39-.22-.1-.55-.2h-.33l-.17-.15-.72-.83-.22-.39-.94-1.03-.11-.24-.61,1.52-3.7-1.77-.11-.05-.17-.05.44-1.18.17-.74.05-2.21.06-.78.61-2.7h-.11l-.11-.05-.11-.05-1.16-.39.11-.39.66-2.75,1-4.02.05-.2-.61-.39-.39-.44-.66-.34-.33-.54-.44-.88-.22-.34-.77-.64-.5-.74-.61-.83-.44-.44-1.11-1.23-1.44-1.38-.11.05-1.27-1.08-1.16-.93v-.15l-.5-.34-.66-.54-.39-.29-.39-.1-.77-.59-.22-.15-.61-.29-1.16-.74-.22-.15-1.99.2-.17-.39-.06-.15-.06-.2v-.1l-.06-.15h-.11l-.11-.1-.22-.98v-.25l.17-.29.17-.49.33-.1-.17-.3-.22-.39-.33-.64.39-.05h.28l.55-.1.5-.05.33-.05.44-.05.44-.05.5-.1h.11l.22-.05h.39l.06-.05.17-.69v-.05l.44-.1.72-.25.77-.54.39-.49.06-.1.05-.05.05-.05.11-.24.22-.39-.05-.24-.06-.44-.05-.1-.28-.39v-.05l-.28-.39-.06-.15v-.05l-.11-.54-.22-.79-.11-.34-.11-.39-.11-.59-.06-.15-.17-.64-.05-.15-.06-.3-.05-.05-.11-.49-.22-.79.61-.15.22-.05.17-.05.05-.15.22-.74v-.05l.06-.1.11-.78v-.74l-.17-.2-.17-.15-.17-.15-.28-.24.66-.54.16-.05.06.05.11.05.28-.1-.22-.44-.28-.39-.11-.25.05.05h.06l.72-.34,1.22-.59-.28-.69-.17-.34-.17-.39-.22-.44-.33-.59-.06-.15-.39-.59-.66-.79-.55-.69-1.1-.93.22-.78-.33-.34-.44-.44.11-.1,1.05-.54.11-.25.05-.15,1.33-.64.33-.15.5-.25.83-.39.77-.29.66-.25.39-.1.28-.1.72-.15.5-.1.28-.05.99-.15h.05l1-.15,1.88-.29.94-.2.88-.2.94-.2.89-.24.94-.25,1.77-.59-.11-.25v-.05l-.11-.25-.11-.24-.39-.93.44-.69.17-.78-.05-.64,1.49-1.96-1.77-1.03.61-1.77.61-1.82-1.11-.1-1.16-.05-.22-1.82-.17-1.72-.66-2.01-.66-1.57-.66-.83-.83-1.08-.55-.39-.61-.39-2.21-.93-2.43-.39-2.38-.39-1.88.93-.44.15-.44.05h-.94l-.61-.05h-.61l-1.22.05-.28.29-.28.39-.22.2-.72.25-.44.25-.88.83-.11.24-.11.25-.17.54v.59l-.05.54-.17.29-.05.15h-.06l-.94.24-.55.05-.28.05-.33-.15-.83.1-1.49.1-2.54.1-.17.05-.28.05-.28.1-.44.15-2.6,1.42-2.65,1.03-.66.34-2.21,3.73h.05l-.11.29-.28.44-.99,1.72-.11.2-.11.2-.05.15-.17.2-.06.15-.11.2h.06l-.11.34.11.05-.06.1-.17.25-.06.15-.16.25-.06.1-.11.25-.05-.05-1.55,2.65.17.05.17.1-.11.2-.06.05-.22.49-.44.93-.33-.2-1.99,3.43-.39.39-.17.15v.05l-.05.05-.11.1-.05.05-.05.05v.05l-.17.15v.05l-3.37,5.69-.61.98-.11-.05-3.1,5.25-.44.74-.06.15-.39.64.11-.05-.66,1.08-.17.34-.5.83h-.11l-.33.54-1.99,3.39-.77,1.37-.55.88-.88,1.57-2.21,3.78-.05.05-.06.15h-.05l-.05.1-.22.44-.22.39-.22.34-.22.39-.17.2-.11.2-.05.1-1.11,1.91-.28.39-.33.54-.06-.05-.66,1.13-.22.49-.11.49v.1l-.05.05v.39l.05.49.11.49.22.49,2.16,3.34.05.05v.05l.06.05v.05l.06.05v.05l.06.05v.05l.05.05v.05l.05.05v.1l.06.05v.05l.05.05v.05l.06.05v.1l.06.05v.1l.05.05v.1l.06.05v.1l.05.05v.1l.05.05v.15l.06.05v.15l.05.05.99,4.07v.34l-.11.39-.17.34-.28.34Z" style="fill:#cecece; stroke-width:0px;"/><path name="Breitenrain-Lorraine" d="M370.91,92.48l-3.1,11.78-.44,1.72-.77,2.8-.28,1.08-.06.93-.05.1.05,1.08.11,1.08.28,1.08.33,1.08.44,1.03.5.98.88,1.42,1.11,1.37,1.49,1.47.22.2v.05l2.93,2.7.39.34.66.64,1.22.98,1.82,1.13.06.05,1.93.93,3.65,1.52,1.33.54,1.22.34,1.22.24,1.27.2,1.33.1,1.27.05,1.27-.1.39-.05.89-.1,1.11-.2,4.31-.69,1.16-.15.5-.1h1.16l.83-.05,1.6.15,1.22.1,1.05.25.94.54.66.64.44.93.06.29.88-.1.17-.05.28-.2.05.05v-.05l.17-.15.11-.05.17.05.17.05.22.2.06.15v.25l.22.2-.05,1.08v.69l.22.39.11.1.05-.05.22.2h.17v.1h.16l.22.05h.22l.44.05.22-.1.22-.1.28-.34.17-.34.11-.39v-.34l-.99-4.07-.05-.05v-.15l-.06-.05v-.15l-.06-.05v-.1l-.05-.05v-.1l-.05-.05v-.1l-.06-.05v-.1l-.05-.05v-.1l-.06-.05v-.05l-.05-.05v-.05l-.05-.05v-.1l-.06-.05v-.05l-.05-.05v-.05l-.06-.05v-.05l-.06-.05v-.05l-.05-.05v-.05l-.06-.05-2.16-3.34-.22-.49-.11-.49-.05-.49v-.39l.05-.05v-.1l.11-.49.22-.49.66-1.13.06.05.33-.54.28-.39,1.11-1.91.06-.1.11-.2.17-.2.22-.39.22-.34.22-.39.22-.44.05-.1h.06l.05-.15.06-.05,2.21-3.78.88-1.57.55-.88.77-1.37,1.99-3.39.33-.54h.11l.5-.83.17-.34.66-1.08-.11.05.39-.64.05-.15.44-.74,3.1-5.25.11.05.61-.98,3.37-5.69v-.05l.06-.05.05-.05.06-.05v-.05l.17-.15.06-.05.06-.05v-.05l.16-.15.39-.39,1.99-3.43.33.2.44-.93.22-.49.05-.05.11-.2-.17-.1-.17-.05,1.55-2.65.05.05.11-.24.05-.1.17-.24.06-.15.17-.25.05-.1-.11-.05.11-.34h-.05l.11-.2.05-.15.17-.2.06-.15.11-.2.11-.2.99-1.72.28-.44.11-.29h-.05l.44-1.86h-.22l-.05-.1.22-2.21.06-.34.11-.34.11-.2.06-.15.17-.29.27-.44.22-.39.22-.29h-.05l-.28-.15.11-.39.11-.39.06-.39-.11-.78-.11-.34-.22-.39-.05-.05-.17-.29-.39-.49-.05-.05-.11-.15-.28-.39-.22-.34-.11-.25v-.1l-.06-.39-.11-1.08-.11-2.75-.11-.88-.17-.83-.33.1-.11-.2-.28-.59-.28-.39-.06-.1-.22-.24-.17-.2-.44-.39-.39-.39-.17-.2-.17-.1-.17-.25-.22-.29-.17-.29-.11-.34-.11-.24-.06-.29-.05-.15v-.2l-.06-.29-.06-.98-.11-1.08-.11-.79-.33-.98-.39-.69-.66.29-.66.34-.22.1-.11.05-.83.34-.22,1.91-1.33,2.45-5.09,4.66-1.55,2.21-1.27,1.86-4.81,3.48-4.04,1.62-4.48-.29-9.9-4.12-2.27-.1-1.27-.05-2.49.49-2.65.74-2.54,1.13-2.16,1.62-1.38,1.57-1.88,3.24-1.27,2.21-1.77,3.19-.72,1.62-1.05,1.72-.66,1.03-.77,1.08-1.16,1.62-1.11,2.06-.88,2.31-1.11,4.37-.06.1Z" style="fill:#cecece; stroke-width:0px;"/><path name="Bümpliz-Oberbottigen" d="M118.65,143.31h-.61l-.39-.15-.33-.24-.5-.15-.83.2-.22.05-.22.05-.55.25-.44.05-.33-.05-.44.05-.17-.05h-.66l-.22-.1h-.44l-.17.05-.66-.1-.33.1-.17-.1-.33-.24h-.33l-.28-.2-.11-.2h-.33l-.5-.05-.17.1h-.72l-.39-.05-.39.2-.5.15-.5.34-.44.1-.11.05-.22.05-.94.05h-.06l-.11.1-.61-.05-.33-.05-.33-.2-.11.05-.39-.1-1.11-.19h-.33l-.44-.15-.28.05-.22.1-.39-.39-.44.1h-.5l-.5-.1h-.06v.25l.22.34-.72-.05-.55.05h-.44l-.66.05-.28-.05-.39.05-.66-.1-.94-.34-.17-.05v-.1l-.11-.29-.17-.2v-.05l-.28-.24-.5-.39-1.11.2-.55.1h-.61l-.22-.05-.61.15-1.05.05-.61.05-.66.05-.28.05-.72.1-.22.05-.44.15-.39.25-.5.29-.61.44-.5.39-.66.54-.33.24-.11.1-.28.2-.22.24-.22.24h.06l-.17.2-.22.15-.83.44-.06.2.22.69v.1l-.17.34-.22.59-.06.05-.17.24-.94.88-.06.05-.11.1-.06.1-.55.79-.17.15-.22.2-.06.05-.11.2-.22.2-.06.05-.11.2-.06.1h-.06v.15l-.33.39-.06.1-.06.2-.11.05-.11.05h-.22l-1.55.2-.44.05-.88.1-1.99.1h-.06l-.28.05-.5.1-.17.05h-.22l-.39.1-1.6.34-.88.2-.72.2-.17.05h-.5l-.55.05-.44.15-.44.1-.44.1-.44.15-.5.1-.22.05-.39.1-.22.05-.5.05-.33.05-.55.05-.22-.05-.17.05-.17.05-.11.05-.17.05h-.17l-.17.05h-.72l-.06.05-.28.1-.17.05-.17.05-.17.05-.44.15h-.22l-.11.05-.22.05-.11.05h-.06l-.11-.05-.28-.05-.22.05h-.55l-.33-.1-.77-.15-.17-.05-.33-.1-.11-.05h-.11l-.11-.05-.11-.1-.28-.05-.11-.05h-.06l-.11.05-.22-.05-.11-.05h-.11l-.05.05h-.22l-.06-.05h-.17l-.22.15-2.71,1.82-.06.1-2.87.34-.5.05h-.17l-.72.05-.17.05h-.17l-.83.1-.44.05-.22.05-.39.05-.17.05-.39.1h-.17l-.11.05-.33.1h-.11l-.17.05h-.61l-.17.05-.17-.05h-.5l-.17-.05-.17.05h-.06l-.99.49-1.05.54-1.27.59-.28.15-1.16.59-.61.29-1.93.98v1.08h-.17l-.17.05-.33.05-.39.15v.49l.22.54-.72.64.33.25.06.24-.17.29-.11.1-.5.15-.5.15-.11.05-.44.25-.61.34-.22.1-.44.29-.55.64-.72.69-.11.29v.34l.17.69.11.88-.06.88v.34l.06.34-.06.98-.11.59-.33.64-.44.79.33,1.28-.06,1.33.17.44,1.05.83.39.34.17.83.17.59.28.29.28.29.22.49.11.35.11.2.22.49.11.59.28.69.22.69-.89.34-.88.34.06.15,1,1.37.61.88.44.54.39,1.23.39,1.08-.17.49-.22.29-.28.59-.39.44-.83.05-.28.34-.77.49-.39.1-1.11.25-.5.05-.44.25-.44.34-.44.59-.55.54-.44.2-.77.49-.72.34-.33.15-.44.49-.33.69-.5.74-.22.34-.77.83-.33.2-.72.1v.05l-.22.1-.11.2-.17.15h-.39l-.33.1-.61.15-1.77.34-1.16.3-1.05.39-.28.1-.72.64-.61.29-.5.39-1.16,1.42-.17.15-1.16,1.28-1,1.18-.17.15-.28.2-.55.44-.72.74-.61.78-.5.69-.88.78-.83,1.08-.44.69-.44.64-.33.54-.28.49-.17.34-.17.39v.29l.22.54.17.29,1.27,1.67,5.81.1h1.11l.5-.1,5.36.44,5.86.69,6.63.69h1.22l2.99.29,1.44-.2,1.99.05,5.03-.49,4.04-.98.94-.29,2.21-.69,2.71-.79.94-.39,1.49-.79,1.99-1.03,2.27-1.18,1.05-.49,1.71-.44,2.21-.64,2.16-.93.72-.1h1.49l1.38.34.06-.05,1.05.05,1.27-.05,1.71-.29.72-.05h.28l.28.05.77.05.94-.05.77-.05,1,.2v.2l-.06.39,1.22.83,1.33.15.39.39.66.64.5.44.11-.05.44.74.17.34.17.29.39.54,1.33,14.72,9.34-.64,10.12-.69,10.12-.69-1.44-15.65,4.53-.39h.06l.89-.1,6.36-.54,3.59-.79.61-.05,1.88-.15,1.16-.05h1.49l2.38-.2,2.32-.74,1.6-.29,1.88-.69,1.82-.39.99-.15,1.33-.2.44-.05h1.1l.94.05h.88l1.49-.1-.06-.29v-2.21l.33.05h.22l1.22-.1,1.22-.1,1.33-.25,1.16-.29,1.71-.29.77-.1.83-.1.33-.05,1.22.1h.94l1.22.05h1.16l1.1-.05,1.71-.1-.06-.83-.06-1.67-.11-.83-.17-1.13.55-.2.5-.1,1.6-.2,1.44-.15,1.16-.15,1.71-.39.33-.1.83-.25,1.16-.15h.5l1.38-.2.94-.15,1.38-.44,1.33-.44.06-.05h.06l1.82-.98,2.27-1.52.61-.49.44-.39-.17-1.08-.11-.1-1.27-1.57-1.05-1.23.33-.39,1.27-1.57.88.29,1.77.39.66.24.83.49.44.49,1.99-1.08v-.29l2.43-.54,1.93-.44,1.55-.29h.17l.06.05.11.49.05-.2.17-.1,1.38-.15.88-.1.39-.05.33-.05.88-.15v3.19l-.06.93h.06l1.38-.24,1.33-.2,1.66-.1,1.16-.05.72-.05,1.33-.1h.05v-.1l.17-.59.39-1.52.22-.78.28.05.88.05.55.05,1.1.05.66.05.17.1.44.25.39.15h.72l.66-.05.61-.1.22.25-.39,1.62-.05.29-.05.25v.05l-.55,2.06v.1l-.11.44v.1l.72,1.47-.99.44h-.11l-.77,1.03,1.66,1.82.44.49.11.1.11.2.17.1.06.1.28.29.61.54.17.2.11.1.33.44.06.05.05.1v.44l.22.29.16.25.17.29.17.15.06.15.17.25.05.15.06.54v.44l.06.24.11.2.22.34.11.15.55-.74.39-.44.33-.39.11-.15.5-.39.5-.34.66-.39.88-.59.22-.2.05-.05.22-.15.83.79.5-.34.66-.49.94-.54,1.27-1.13.11-.1.72-.59.39-.39-.06-.34-.06-.93.33-.39,1.1-.49.44-.34,1.49-1.08,1-.88,1.05-.88,2.21-1.32,2.32-.44.33-.05.5-.1,1.27-.2.94-.2,1.21.2-.28-.69-.28-.59-.5-1.08.94-.25.94-.25.83-.2.72-.24.77-.29.83-.29.55-.2.5-.24.55-.29.88-.49,1.55-1.08.33-.29.39-.29.66-.64.66-.64.83-.93.44-.59.33-.49.61-1.13.72-1.08h.05v-.1l.94-1.57.5-.79.55-.69.55-.74.72-.74.5-.44.61-.44.83-.49.5-.39.33-.34.44-.34.66-.39.72-.39,1.05-.54.61-.29.72-.24.77-.29.66-.2.94-.34.55-.2,1.22-.44-.61-1.13.61-.25.99-.24,1.11-.64,1.16-.79,1.16-1.08,1.6-1.72.06-.2-.17-.64v-.34l.28-.69.22-.34.28-.05.33-.15.17-.29.17-.34.06-.2-.06-.05,1.22-.74v-.29l-.28-.1-1.99-.25-1.11-.1h-.06l-.06-.05h-.55l-.05-.05h-.83l.06-.25.28-1.13-.11-.2-.06-.15-.05-.05-.88.44-.5-.88v-.1l-.11-.05-.22-.2.72-.59.22-.2,1.11-.93.55-.49.33-.39.5-.34.72-.44.33-.34.44-.44.44-.25.17-.15.11-.1.17-.15,1.22-.98.77-.64.17-.69v-.1l.05-.05v-.1l.05-.05v-.1l.06-.05v-.1l.05-.05v-.1l.17-.39.22-.39-.28-.1-.39-.98-.05-.1.72-1.52h-.72l-1.11-.1v-4.07l1.11.05h.28l.05-.1v-.05l.06-2.45-.66-.05-.05-.98.05-1.86h-.99l-.06-.25-.55-.24-.5-.29-.44-.39v.24h-1.27l-.22.15-1.6-.05-2.6-.2-.22-.05-3.15-.24-3.37-.29-.72.2v.05l-.17.1-.11-.05-.17-.15-1.71-1.32-.61-.44.44-.79-1.71-.79-.22.39-3.48-2.65-4.59-2.99-2.38.83-1.66.59-1.99.74-2.04.74-.39-.54-.06-.05-.11-.1v-.05l-.06-.05v-.05l-.06-.05v-.05l-.05-.05v-.1l-.06-.05v-.15l-1.33-1.62h-.05l-.06-.05h-.06l-.17-.15-.05-.05-.11-.1v-.05l-.61-.78-.39-.69-.55-.88-.55-2.45v-1.72l.77-.1-.22-.34-.11-.34-.33-.93.11-.05-.11-.39-.06-.39-.05-.44-.22-.88-.05-.2-.28-1.28-.28-.88v-.59l-.28-.78-.39-.79-.22-.64-.39-.98-.06-.05v-.1l-.06-.05v-.1l-.05-.05v-.1l-.06-.05v-.1l-.05-.05v-.05l-.06-.05v-.1l-.06-.05v-.1l-.5-.98-.55-.93v-.05l-.06-.05v-.05l-.05-.05v-.05l-.06-.05v-.05l-.11-.1v-.05l-.06-.05v-.05l-.11-.1v-.05l-.06-.05v-.05l-.06-.05-.61-.88v-.05l-.11-.1v-.05l-.11-.1v-.05l-.06-.05-.06-.05v-.05l-.06-.05v-.05l-.11-.1v-.05l-.05-.05-.06-.05v-.05l-.66-.88-.61-.84-.22-.2-.61-.69-.66-.69-.61-.64-.05-.05-.72-.69-.77-.69-1.38-1.57-.55-.78-.44-.64-.88-1.03-.28-.15-.72-.98-.39-.44-.39-.49-.39-.44-.11-.25.11-.25.22-.29,3.76-4.32.28-.29.28-.2.22-.15.33-.15-.06-.59-.5-.25-.44-.25-.44-.34-.28-.29-.22-.29-.22-.34-.11-.49-.05-.25-.16-.2.16-.1-.22-.2v-.15l-.88-1.03-3.87.29-6.25,2.55-.17.1-4.09,10.06-1.16,2.85-.66.39-8.02,4.86-8.74-2.9-1.11,1.32-.22.25-2.82,3.24.94.49.66.44-1.33,2.01-.83,1.27-.66.98.39.34-.17.34-.11.24-.83.69-1.38,1.62-1.22.79-.72.15-1.55.69-1.33,1.13-.72.59-.17.1-.66.39-.88.29-.5.25-.88.93-1.16,1.08-1.55,1.08-1,.64-.33.2-1.49.93-1.6.93-1.05.59-1.27.78-.83.64-.05.05-1.27.79-1.33.98-1.55.83-.94.49-1.6.49v.15l.06.83-.06.74-.5-.25-.94-.34-.66-.25-.28-.1-.94-.2-3.26-.39-1-.2-5.09-.74-.06.15-.28.98-.17.54-.11.25-.33.93-.28.88-.22.79h-.28l-.33.15-2.49.49-1.77.39.66,1.82,1.22,3.34v.05l.11.15-.88.29-.78.29-.88.29-.55.05-.61.25-.83.44-.39.44-.77.25-1.1-.05-.28.05-1.77.44-.39.1-.22-.1-.06-.29-.06-.39-.28-.49-.06-.15v-.15l.06-.2-.17-.24-.22.1-1.05.44-.33-2.85-.05-.59-.06-.78h-.17l-7.79,2.06.28,1.28.39,1.67.22,1.13.11.49-1.27.25-.28.05-2.43.15-.06.1-.11.15-.11.2-1.6-.29-.22,2.65v.93Z" style="fill:#cecece; stroke-width:0px;"/><path name="Mattenhof-Weissenbühl" d="M281.47,147.49l-.77.64-1.22.98-.17.15-.11.1-.17.15-.44.25-.44.44-.33.34-.72.44-.5.34-.33.39-.55.49-1.11.93-.22.2-.72.59.22.2.11.05v.1l.5.88.88-.44.05.05.06.15.11.2-.28,1.13-.05.25h.83l.05.05h.55l.06.05h.05l1.11.1,1.99.24.28.1v.29l-1.22.74.06.05-.06.2-.17.34-.17.3-.33.15-.28.05-.22.34-.28.69v.34l.17.64-.06.2-1.6,1.72-1.16,1.08-1.16.79-1.11.64-.99.24-.61.24.61,1.13-1.22.44-.55.2-.94.34-.66.2-.77.29-.72.25-.61.29-1.05.54-.72.39-.66.39-.44.34-.33.34-.5.39-.83.49-.61.44-.5.44-.72.74-.55.74-.55.69-.5.79-.94,1.57v.1h-.05l-.72,1.08-.61,1.13-.33.49-.44.59-.83.93-.66.64-.66.64-.39.29-.33.29-.77.54-.77.54-.89.49-.55.29-.5.24-.55.2-.83.29-.77.29-.72.24-.83.2-.94.24-.94.25.5,1.08.28.59.28.69-1.22-.2-.94.2-1.27.2-.5.1-.33.05-2.32.44-2.21,1.32-1.05.88-.99.88.94,1.18.72.74.44.39.33.34.44.29.77.49.61.49.22.25.61.64.66.69.99.79.66.49.61.44.5.39.77.64,1.27,1.08.72.59.72.88.94.93,1.38,1.27,1.22.69,1.1.69.99.49,1.6.88,1.88.64,1.49,1.82,1.44,1.37,1.05,1.13,1.27,1.18,1.33,1.37,1.6,1.47.61.49.83,1.42,1.16.74,1.27,1.28,1.38,1.18.11-.54v-.54l-.11-.59-.17-1.28v-.54l-.5-.25-.44-.29-.39-.54.05-.69.22-.59.39-.79.28-.69,1.27-1.32.88-1.03.39-.24.72-.25.5-.15h.44l.17-.05,1.11.1h.22l.44.05,1.22-.2.66-.15.33-.05.88-.2.94-.2.89-.29.83-.34.88-.44.55-.25h.05l.44-.25.5-.24.17-.1.66-.29.28-.2.5-.24.22-.15.61-.34.11-.1.05-.05-.16-.15-.11-.05-.11-.2-.33-.49-.11-.2-.22-.34-.28-.29-.11-.15-.39-.54-.17-.15-.05-.74v-.49l.44-1.23.05-.29.17-.64v-.25l-.11-.83-.17-.49-.61-.64-.17-.2v-6.97l.66-.49.06-.05.5-.44h.06l.05-.05.83-.49.72-.39.11.05,1.05.2h1.66l.44-.1.5-.1h.05l.22.93.72-.15.88-.15.66-.15-.06-.15.28-.05v.15l.33-.05.99-.2.66-.15-.17-.88.61-.15.28-.05.39-.05.61-.15h.17l.72-.15.99-.2h.06l.22-.05.55-.1.77-.15.22-.05v-.1l-.11-.25-.11-.34-.05-.29-.11-.34-.11-.34v-.05l-.11-.29-.39-1.08-.05-.2.55-.59.22-.88.16-.54.22-.54.11-.29v-.15l.11-.49.22-1.13h.22l.11-1.28.06-.1.28-1.18.11-.74.05-.54.17-.54.11-.39.11-.34.22-.54.06-.29.05-.34v-.88l-.11-.44.39-.1-.05-.34-.11-.39-.06-.2-.05-.39.44.1h.28l.5.1h.05l.11.05h.17l.61.1.77.15.22.05h.17l.17.05.72.25,1.6.59.17.05h.05l1.16.05h.28l3.37,2.75,2.43,1.91.06.1.05.05,1.44,1.13,1.33,1.08.05.05.22-.25.22-.2.28-.29.55-.64.94.64.11.05.55.29.5.2.89.44.66.29.44.2.06-.2.39-.69.55.34.39.24.39.25.55.39.39-.64.16-.29.5-.74.55-.84.11-.1.05.05.5.54,1.38,1.13,2.21,1.52.83.59.77.39.72.29.5.1h.22l.83.25.55.2.72.15.88.29.5.29.22.1.72.29.5.2.22.1.5.25.06.05.5.29.5.34.83.54.55.39.28.15.11.15v.2l-.44.54.28.2.11.05.28.1h.11l.11.05.05.05h.05l.22.1.16.1.05.05.06.05.44.25h.05l.28.15.39.15.28.05.39.05h.28l.17-.05h.11l.11-.1.11-.05.17.05.11.05.28.24,1.99.29,1.55.2h.06l.33.05.77.1.28.05.33.05.77.1.5.05,1.49.2,1.38.2.66.1.33.05.72.1.22.05.22.05v-.05l.11-.1.06-.54.11-.25-.55-.34-.77-.44-1.27-.88-.83-.49-1.1-.74-2.1-1.52-.11-.05-.88-.64-.33-.29-.88-.64-.99-.69.61-1.08.55-.93.44-.74.5-.64.83-1.13.77-.98.33-.44,1.77.2,1.05.24,1.22.15.83.24,2.1.93.94.49.72.15.83.24,1.11.59.83.64.44.34.05.1.17-.1.55.44.72.49.72.44,1.11.59.06.05,2.1.98.77.34.88.39,1.71.84,1.22.69,1.27.74.66.44.83.44.11.05-.06.1.11.05.44.15.33-.05h.11l.39.1.39.15.33.15,1.11.59.55.34.55.44.39.39.39.39.55.69.28-.24.17-.1.11-.25.28-.44.22-.29.17-.29.28-.39.22-.39.33-.49.33-.54.17-.29-.05-.05.61-.93.17-.05h1.27l.39-.05h.11l.99.15.17.05h.17l.11-.59.33.05h.17l.05-.05.61-.25.55-.39.33-.15.22.1.06.1h1.16l.28.2.44.29.55-1.28.11-.15.33-.74v-.1l.39-.74-2.1.25-2.16-.05-2.21-.24-1.94-.39-2.49-.64-1.05-.34-.88-.39-.55-.34-1.11-.69-1.05-.79-.77-.74-.88-.93-.77-.98-.55-1.08-.5-1.18-.44-1.13-.33-1.13-.22-1.23-.11-1.18-.06-1.23.06-1.23.11-1.18.22-1.23.22-1.23.5-2.99.17-.93.94-5.5.55-3.09.72-4.32.11-.84.05-.39.72-1.03.66-1.08,1.05-.59,1.16-.44,1.05-.39,1.11-.29-.33-.59-.11-.29-.05-.15-.06-.34-1.49-.49-.11.1-.11.05-.17-.05-.61.1-.28.05-.22.05h-.22l-.39-.05-.33-.05v-.05h-.16l-1.33.05v.1h-.28l-.11.05h-.99v-.1h-.99l-.05.05-.22.15-.28.15-.33.1-.33.05h-.44l-.28-.05-.22-.05-.28-.1v.05l-.05-.05-.05-.1-.39.1-.44.05.11.34-.44.59-.72.15-.66-.34-.06-.2v-.15l-1.55.39-.33-.15-.39.05-1.11.24h-.05l.05.15.05.2-1.6,2.8-.39.64-.06.05-.22.05-.17-.1-1.99-2.31-.22-.88-.28-1.08-.66.1-1.83.39-2.32.54h-.11l-.06.05h-.05l-.05.05-.06.05-.05.05-.06.05-.05.05v.1h-.06l-.17-.34-.11-.29-.11-.2.28-.44.05-.15.17-.34.06-.1v-.1l.11-.29.05-.05.11-.54.11-.34.22-.69.11-.34.11-.29-.11-.1.05-.05v-.05l-.05-.05h-.06v.05l-.11-.1.05-.34.06-.54-.22-.69-.17-.39.17-.05-.5-1.47-.88.2-2.99.69-.99.2-1.11.24-.06.2v.1h-.44l-.44.05-.61.1h-.06l-.05.05h-.39l-.06.05h-.05l-.06-.05-.05.05h-1.38l-.05.39-1.88-.05-4.37-.24-.55-.05-.55-.2-1.77-.74-1.38-.64-.83-.39-.44-.2-.28-.2-.5-.29-.39-.29-.06.05-.22-.15-.28-.2-.22-.2-1.38-.98-.99-.74-.28-.2-.28-.2-.05-.1-.17-.15-.28-.2-.44-.29-.44-.34-.17-.1-.5-.29-.5-.34-.44-.29-1.05-.69-.5-.34-.33-.2-.5-.39-.22-.15-.17-.15-.33-.29-.33-.29-.17-.1-.28-.2-.33-.29-.44-.29-.66-.49-.33-.24-.33-.2-.17-.1-.17-.15-.17-.15-.17-.1-.17-.1-.22-.1-.28-.15-.39-.2-.22.1-.39-.24-.22-.1-.33.05h-.28l-.05-.05h-.11l-.44-.15-.99-.49-.88-.05-.94-.93h.66l-.17-.15-.28-.29-.17-.2v-.2l-.28-.44-.28-.34h-.22l-.28-.05-.33-.2-.05.05-.55.54-.44.05-.11.15-.44.15h-.17l-.61.15-.66.2h-.06l-.06.05h-.05l-.06.05h-.05l-.06.05h-.06l-.05.05h-.06l-.05.05h-.05l-.06.05h-.06l-.11.05-.44.2-.28.1-.66.24-.61.25-.61.29-.61.34-.55.29-.55.34-.06.05-.44.34-.55.39-1.05.83-.44.34-.55.34-.5.29-.55.29-.55.25-.55.24-.61.2-.55.2-.39.1-.77.2-1.55.44-1.38.34-.22.05-1.55.39-4.53,1.18-1.66.44h-.44l-3.32-.1h-1.71l-.33-.05-.06.69-.05,1.86.05.98.66.05-.05,2.45v.05l-.06.1h-.28l-1.11-.05v4.07l1.11.1h.72l-.72,1.52.06.1.39.98.28.1-.22.39-.17.39v.1l-.06.05v.1l-.06.05v.1l-.05.05v.1l-.05.05v.1l-.17.69Z" style="fill:#cecece; stroke-width:0px;"/><path name="Länggasse-Felsenau" d="M314.85,122.46l.28.44v.2l.17.2.28.29.16.15h-.66l.94.93.88.05.5.25.5.25.44.15h.11l.06.05h.28l.33-.05.22.1.39.25.22-.1.39.2.28.15.22.1.17.1.17.1.17.15.17.15.17.1.33.2.33.25.66.49.44.29.33.29.28.2.16.1.33.29.33.29.17.15.22.15.5.39.33.2.5.34,1.05.69.44.29.5.34.5.29.17.1.44.34.44.29.28.2.17.15.06.1.28.2.28.2.99.74,1.38.98.22.2.28.2.22.15.05-.05.39.29.5.29.28.2.44.2.83.39,1.38.64,1.77.74.55.2.55.05,4.37.24,1.88.05.05-.39h1.38l.06-.05h.55l.06-.05h.06l.61-.1.44-.05h.44v-.1l.05-.2,1.11-.24.99-.2,2.99-.69.89-.2-.94-2.99.05-.05.44-.15,1.1-.49.61.93h.11l.33-.2.28-.15.28-.2,1.77-1.18.33-.25.27-.24.28-.25.28-.29.22-.24.28-.34.17-.34.28-.44-.88-.49.28-.54.17-.34.22-.69.17-.49,1.71.05.22-.69.66-.54.61-.49,2.38-1.96.5-.44.11.1,1.49-1.23.11-.05.61-.54-1.49-1.47-1.11-1.37-.88-1.42-.5-.98-.44-1.03-.33-1.08-.28-1.08-.11-1.08-.05-1.08.05-.1.06-.93.28-1.08.77-2.8.44-1.72,3.1-11.78.06-.1,1.11-4.37.89-2.31,1.11-2.06,1.16-1.62.77-1.08.66-1.03,1.05-1.72.72-1.62,1.77-3.19,1.27-2.21,1.88-3.24,1.38-1.57,2.16-1.62,2.54-1.13,2.65-.74,2.49-.49,1.27.05,2.27.1,9.9,4.12,4.48.29,4.04-1.62,4.81-3.48,1.27-1.86,1.55-2.21,5.09-4.66,1.33-2.45.22-1.91-.72-1.13-1.38-.93-1.71-.34-4.7.05-16.58-2.4-.17-.05h-.17l-1.94-.34-1.33-.44-1.16-.83-.89-1.13-.44-1.28-2.32-10.55-.44-1.82-.5-1.77-.55-1.82-.39-1.32-.05-1.13-.94-16.49-.44-2.01-1.83-1.42-1.99-.1-5.42,2.85-2.1,3.73-.94,3.63-.33,4.96-1.27,3.48-4.2,5.94-4.7,3.83-3.26,2.65-.5,1.03-.61,1.18.72,2.5,2.27,1.77,3.93,1.37,5.14-2.55,1-.49h2.93l2.43,2.21.88,4.22-1.6,4.42-3.43,2.4-3.32.34-1.22-1.82-.94-1.28-3.82-3.43-2.54-.54-2.49.64-1.71,1.96-.39.44-1.27,2.16-.72,2.89-.22,3.97-.17,5.01-.28,5.35-1.82,3.53-1.6,1.37-.28.2-3.37.83-2.82-.83-.61-.83-.94-1.23-1.27-5.15-.55-2.16-3.21-4.32-3.93-2.35-3.65-1.08-3.7-.15-.11.05-4.7,1.57-8.73,4.02-3.37,1.57-7.13.79-.28.05-2.77.39-3.26.44-9.45,3.73-9.56,3.83-20.46-1.57-15.53,7.21-22.45,1.72.89,1.03v.15l.22.2-.17.1.17.2.06.25.11.49.22.34.22.29.28.29.44.34.44.25.5.25.06.59-.33.15-.22.15-.28.2-.28.29-3.76,4.32-.22.29-.11.25.11.25.39.44.39.49.39.44.72.98.28.15.88,1.03.44.64.55.79,1.38,1.57.77.69.72.69.05.05.61.64.66.69.61.69.22.2.61.83.66.88v.05l.05.05.06.05v.05l.11.1v.05l.06.05v.05l.05.05.06.05v.05l.06.05.05.05v.05l.06.05.05.05v.05l.61.88.05.05v.05l.05.05v.05l.11.1v.05l.06.05v.05l.05.05.06.05v.05l.05.05v.05l.06.05v.05l.06.05v.05l.55.93.5.98v.1l.05.05v.1l.06.05v.05l.06.05v.1l.06.05v.1l.05.05v.1l.05.05v.1l.06.05.39.98.22.64.39.79.28.78v.59l.28.88.28,1.28.06.2.22.88.05.44.06.39.11.39-.11.05.33.93.11.34.22.34-.77.1v1.72l.55,2.45.55.88.39.69.61.78v.05l.06.05.05.05.17.15.05.05h.05l.06.05h.05l1.33,1.62v.15l.05.05v.1l.06.05v.05l.05.05v.05l.06.05v.05l.17.15.39.54,2.05-.74,1.99-.74,1.66-.59,2.38-.83,4.59,2.99,3.48,2.65.22-.39,1.71.78-.44.79.61.44,1.71,1.32.16.15.11.05.17-.1v-.05l.72-.2,3.37.29,3.15.24.22.05,2.6.2,1.6.05.22-.15h1.27v-.25l.44.39.5.29.55.24.06.24h.99l.05-.69.33.05h1.71l3.32.1h.44l1.66-.44,4.53-1.18,1.55-.39.22-.05,1.38-.34,1.55-.44.77-.2.39-.1.55-.2.61-.2.55-.24.55-.25.55-.29.5-.29.55-.34.44-.34,1.05-.83.55-.39.44-.34.06-.05.55-.34.55-.29.61-.34.61-.29.61-.25.66-.25.28-.1.44-.2.11-.05h.06l.06-.05h.05l.06-.05h.05l.05-.05h.06l.06-.05h.06l.05-.05h.05l.05-.05h.06l.66-.2.61-.15h.16l.44-.15.11-.15.44-.05.55-.54.06-.05.33.2.28.05h.22l.28.34Z" style="fill:#cecece; stroke-width:0px;"/><path d="M502.59,163.01l-1.82-1.36-.64-.43-.26-.23s-.07-.06-.11-.09l-.61-.45-.67-.59c-.05-.05-.11-.09-.17-.13l-3.13-2.98-.61-.77s-.08-.09-.12-.14l-1-.98-.39-.47-.34-.51c-.27-.41-.72-.66-1.21-.67-.5-.04-.96.21-1.25.61l-.64.87-.14-.15c-.06-.06-.12-.12-.19-.18l-1.37-1.06-.46-.33-1.59-1.91c-.05-.06-.11-.12-.16-.17l-.61-.54s-.06-.05-.09-.07l-.47-.37c-.08-.07-.17-.13-.26-.19l-.61-.34c-.11-.06-.23-.11-.35-.14l-1.11-.29c-.07-.02-.13-.03-.2-.04l-.3-.04-.92-.3-1.13-.48s-.07-.03-.1-.04l-.55-.2s-.1-.03-.15-.04l-.34-.39-.15-.26c-.06-.1-.12-.19-.2-.27l-.78-.86v-.03c-.26-.55-.8-.88-1.41-.88-.6.01-1.14.39-1.36.94v.03s-1.3-.62-1.3-.62c0-.02,0-.04.01-.05l.17-.74c.02-.1.03-.19.04-.29l.05-2.14.05-.67.58-2.59c.1-.44,0-.91-.29-1.27-.22-.28-.53-.46-.87-.53l1.42-5.79.05-.2c.17-.63-.08-1.3-.63-1.66l-.43-.28-.25-.28c-.12-.14-.27-.26-.44-.34l-.29-.15-.49-.95s-.05-.1-.08-.14l-.22-.34c-.08-.13-.19-.25-.31-.34l-.61-.5-1.01-1.43c-.05-.06-.1-.12-.15-.18l-1.5-1.61s-.05-.05-.08-.08l-1.44-1.38c-.17-.16-.36-.27-.57-.34l-1.7-1.41c-.11-.2-.27-.38-.46-.51l-1.5-1.14c-.16-.12-.34-.21-.54-.26l-.92-.63c-.06-.04-.11-.07-.17-.1l-.53-.26-1.28-.82c-.29-.19-.64-.28-.98-.24l-.81.08c-.06-.14-.15-.26-.25-.38.22-.16.39-.38.5-.64.08-.21.12-.43.11-.64l.88-.1s.08-.01.13-.02l.36-.07c.09,0,.19-.01.28-.03h.29c.36-.01.77-.2,1.05-.44.2-.18.35-.4.43-.65l.39-.13c.13-.05.26-.11.37-.19l.78-.54c.12-.08.23-.19.32-.31l.39-.49s.03-.04.05-.06c.13-.13.23-.28.31-.44l.27-.53c.18-.32.24-.7.16-1.06l-.09-.55c-.02-.2-.09-.38-.19-.56l-.06-.1s-.05-.08-.07-.12l-.13-.19c-.04-.09-.09-.18-.15-.26l-.12-.17-.08-.4s-.02-.07-.03-.11l-.24-.84-.28-1.14c-.02-.09-.04-.18-.07-.26l-.17-.63s-.03-.09-.04-.14l-.04-.21s0-.04-.01-.06c.25-.17.44-.41.55-.7l.06-.15s.02-.07.03-.1l.22-.72c.05-.12.09-.25.11-.38l.11-.79c0-.07.01-.14.01-.21v-.74c0-.07,0-.13-.01-.2.17-.15.31-.34.4-.56.11-.28.14-.59.08-.88l.62-.3c.71-.34,1.03-1.18.74-1.91l-.28-.69s-.03-.06-.04-.09l-.34-.76-.53-1-.02-.04c-.04-.1-.09-.2-.15-.29l-.39-.59c-.03-.05-.07-.1-.11-.15l-1.19-1.44c-.06-.08-.13-.15-.2-.21l-.37-.32c.04-.21.03-.42-.02-.62.1-.1.18-.21.25-.34l2.42-1.15,1.3-.49.31-.08s.09-.02.13-.04l2.39-.46c.05,0,.1,0,.15-.01l2.96-.46,2.86-.61,1.9-.51,1.77-.59c.4-.13.73-.43.9-.82.17-.39.17-.83,0-1.22l-.03-.06c-.02-.08-.05-.16-.08-.24l-.29-.65.02-.03c.1-.15.17-.32.21-.5l.17-.79c.03-.14.04-.29.03-.44v-.06s1.14-1.5,1.14-1.5c.26-.34.36-.78.28-1.2-.08-.42-.34-.79-.72-1l-.71-.41.82-2.43c.15-.44.08-.91-.17-1.3-.25-.38-.67-.63-1.12-.67l-1.06-.09-.23-2.24c-.01-.11-.03-.22-.07-.33l-.66-2.01s-.03-.08-.04-.11l-.66-1.57c-.05-.12-.12-.24-.21-.35l-1.48-1.9c-.09-.12-.2-.22-.32-.31l-1.21-.82c-.07-.05-.15-.09-.23-.12l-2.21-.93c-.11-.05-.23-.08-.34-.1l-4.81-.78c-.31-.05-.63,0-.91.14l-1.78.89-.19.06-1,.02-.55-.04s-.08,0-.12,0l-1.89.05c-.39.02-.76.19-1.03.47l-.28.29c-.05.05-.09.11-.13.17l-.11.15-.37.13c-.08.03-.17.06-.24.11l-.44.25c-.11.06-.21.13-.3.22l-.88.83c-.14.13-.26.3-.34.48l-.22.49c-.03.06-.05.12-.07.18l-.17.54c-.04.14-.07.29-.07.44v.32l-.4.04c-.23-.09-.47-.12-.71-.09l-.75.09-3.99.19c-.12,0-.25.02-.37.06l-.28.06c-.08.01-.16.04-.24.06l-.69.24c-.08.03-.17.06-.25.11l-2.51,1.38-2.13.83.06-.09c.32-.43.36-1,.15-1.49,0-.04.02-.09.02-.13l.06-.39c.02-.14.02-.28,0-.42l-.11-.79c-.01-.08-.03-.17-.06-.25l-.11-.34c-.03-.1-.07-.19-.12-.28l-.22-.39c-.03-.06-.08-.13-.13-.19l-.08-.15c-.04-.07-.08-.13-.13-.2l-.39-.49s-.06-.07-.1-.11l-.38-.55-.14-1.22-.11-2.75s0-.09-.01-.13l-.11-.88s0-.07-.02-.11l-.17-.83c-.08-.41-.33-.77-.69-.99-.05-.03-.1-.06-.16-.08-.03-.06-.07-.13-.11-.19l-.25-.36c-.05-.1-.12-.19-.19-.27l-.35-.4c-.05-.06-.1-.11-.15-.16l-.4-.36-.44-.47c-.07-.09-.16-.17-.25-.23l-.19-.26-.11-.27c-.02-.05-.04-.11-.06-.16l-.06-.2s-.02-.08-.03-.13c0-.07-.01-.15-.03-.22l-.09-1.15-.23-1.92c-.01-.09-.03-.18-.06-.27l-.33-.98c-.03-.09-.07-.17-.11-.25l-.39-.69c-.38-.67-1.21-.95-1.92-.64l-1.3.62-.04-.06c-.11-.17-.26-.32-.43-.44l-1.38-.93c-.17-.11-.35-.19-.54-.23l-1.71-.34c-.1-.02-.2-.03-.31-.03l-4.58.05-16.36-2.37-.06-.02c-.14-.04-.28-.06-.43-.06l-1.73-.3-1.01-.34-.8-.58-.6-.76-.33-.96-2.31-10.5-.46-1.87-1.39-4.75-.99-17.45c0-.08-.02-.16-.03-.24l-.44-2.01c-.08-.34-.27-.65-.54-.86l-1.83-1.42c-.24-.19-.54-.3-.85-.32l-1.99-.1c-.28-.02-.54.05-.77.17l-5.42,2.85c-.26.13-.47.34-.61.59l-2.1,3.73c-.06.11-.11.23-.15.36l-.94,3.63c-.02.09-.04.18-.04.28l-.32,4.74-1.13,3.09-3.97,5.61-7.8,6.35c-.17.14-.31.31-.41.51l-1.09,2.17c-.18.34-.21.73-.11,1.1l.72,2.5c.09.31.27.57.52.77l2.27,1.77c.13.1.27.18.43.23l3.93,1.37c.38.13.8.11,1.16-.07l5.82-2.89h2l1.64,1.49.7,3.33-1.3,3.57-2.72,1.91-2.03.21-.75-1.12-.94-1.28c-.06-.08-.13-.16-.2-.23l-3.82-3.43c-.2-.18-.43-.3-.69-.35l-2.54-.54c-.22-.05-.46-.04-.68.01l-2.49.64c-.29.08-.56.24-.76.47l-2.1,2.41c-.06.07-.12.15-.16.22l-1.27,2.16c-.07.12-.13.26-.16.4l-.72,2.89c-.02.09-.04.18-.04.28l-.22,4.01-.17,4.98-.26,5.02-1.54,2.99-1.32,1.13-2.7.67-1.94-.58-1.08-1.43-1.75-7.02c-.05-.19-.13-.37-.25-.52l-3.21-4.32c-.12-.16-.26-.29-.43-.39l-3.93-2.35c-.11-.06-.22-.12-.35-.15l-3.65-1.08c-.12-.04-.24-.06-.37-.06l-3.7-.15c-.23,0-.46.03-.67.13l-4.68,1.57c-.05.02-.1.04-.15.06l-11.89,5.49-6.89.76s-.07,0-.1.01l-6.24.87c-.12.02-.24.05-.35.09l-9.46,3.73-9.24,3.7-20.11-1.54c-.26-.02-.51.03-.75.14l-15.29,7.1-22.17,1.7s0,0,0,0l-3.87.29c-.16.01-.31.05-.45.11l-6.25,2.55c-.07.03-.13.06-.19.1l-.17.1c-.28.17-.5.42-.63.73l-5.06,12.44-7.67,4.64-8.08-2.68c-.58-.19-1.23-.01-1.62.46l-4.13,4.79c-.3.35-.43.81-.34,1.26.09.45.37.84.78,1.05l.18.09-1.94,2.94c-.23.34-.3.75-.23,1.13l-.21.17c-.07.05-.13.12-.18.18l-1.24,1.45-.8.51-.44.09c-.1.02-.21.05-.31.1l-1.55.69c-.13.06-.25.14-.36.23l-1.93,1.63-.59.35-.73.24c-.06.02-.13.05-.19.08l-.5.25c-.16.08-.3.18-.42.31l-.82.87-1.08,1.01-1.41.99-2.76,1.73-2.69,1.54-1.27.78s-.09.06-.13.09l-.83.64s-.02.01-.03.02l-1.17.72s-.07.04-.1.07l-1.24.92-2.25,1.2-1.47.45c-.48.15-.84.51-.99.97l-.45-.16c-.06-.02-.13-.04-.19-.05l-.94-.2s-.08-.02-.13-.02l-3.21-.39-1.01-.2-5.09-.74c-.7-.11-1.37.29-1.62.95l-.06.15s-.03.08-.04.13l-.4,1.4-.07.16s-.03.08-.05.11l-.62,1.84-3.99.83c-.42.09-.78.36-.99.74s-.24.83-.09,1.24l1.44,3.94-.89.3-.38.03c-.15.01-.29.05-.43.1l-.61.25s-.1.04-.15.07l-.83.44c-.16.08-.3.2-.42.33l-.11.13-.12.04-.84-.04c-.11,0-.22,0-.33.02l-.28.05s-.07.01-.1.02l-.9.22c0-.3-.09-.59-.26-.84l-.17-.25c-.29-.42-.76-.66-1.24-.66l-.22-2.29c-.06-.79-.71-1.39-1.5-1.39h-.17c-.13,0-.26.02-.38.05l-7.79,2.06c-.78.21-1.25.98-1.08,1.77l.66,2.91.03.14-2.29.14c-.3.02-.58.12-.81.3l-.71-.13c-.42-.08-.85.03-1.18.28-.34.26-.55.64-.58,1.07l-.14,1.72c-.25-.07-.5-.08-.75-.02l-1.25.29c-.1.02-.19.05-.29.09l-.34.15h-.02s-.14-.02-.14-.02c-.13-.02-.26-.02-.38,0l-.16.02c-.09-.02-.19-.03-.28-.03h-.35c-.17-.07-.35-.1-.54-.1h-.44c-.08,0-.17,0-.25.02l-.36-.05c-.08-.01-.16-.02-.23-.02-.15-.1-.32-.17-.49-.21-.28-.27-.65-.43-1.05-.43l-.68-.04c-.23-.02-.46,0-.68.09l-.55-.04c-.3-.04-.6.01-.86.15l-.27.13-.37.11c-.15.04-.29.11-.43.2l-.26.18-.16.04c-.08.02-.15.04-.23.07l-.77.04c-.15,0-.3.02-.44.07l-.18-.06c-.26-.16-.56-.22-.86-.2h-.02s-.08-.02-.11-.03l-1.11-.2c-.09-.01-.17-.02-.26-.02l-.3-.07c-.17-.06-.36-.08-.53-.08-.34-.22-.75-.3-1.15-.21l-.28.06-.54-.07c-.1-.02-.25-.03-.35-.03-.49,0-.92.23-1.19.59h-.3s-.07,0-.11,0l-.47.04-.09-.02c-.15-.03-.31-.03-.46-.01l-.18.02-.31-.05-.31-.11c-.04-.06-.08-.12-.12-.17-.08-.15-.19-.29-.33-.41l-.84-.69c-.34-.26-.77-.38-1.19-.3l-1.53.27h-.38c-.22-.06-.45-.06-.67,0l-.47.11-2.22.14c-.05,0-.1,0-.15.02l-.93.14s-.08.01-.13.02l-.22.05s-.1.02-.14.04l-.44.15c-.12.04-.23.09-.33.16l-.85.52s-.08.05-.12.08l-2.11,1.63s-.07.05-.1.08l-.26.19c-.09.06-.17.13-.24.22l-.44.49s-.07.08-.1.12l-.66.35c-.36.19-.62.52-.74.91l-.06.2c-.08.29-.08.59.01.87l.06.19-.11.3-1,.96c-.13.11-.24.25-.32.4l-.42.61-.3.26c-.13.11-.23.24-.32.38l-.09.08c-.12.11-.22.23-.3.37-.14.15-.26.33-.33.53l-2.42.29-1.97.1c-.09,0-.17,0-.26.02l-.8.15s-.06.01-.09.02h0c-.12,0-.25.02-.37.05l-1.95.43-1.66.41h-.28s-.09,0-.13,0l-.55.05c-.12,0-.23.03-.34.07l-1.18.3c-.05.01-.1.02-.15.04l-1.4.35-1.18.15c-.24-.05-.5-.04-.74.03l-.33.1s-.08.03-.12.04c-.09,0-.19.02-.28.04h-.5c-.23,0-.48.07-.7.19l-.81.25c-.17,0-.34.03-.5.09l-.11-.02c-.19-.03-.39-.03-.58.01h-.06s-.29-.02-.29-.02c-.05-.01-.1-.03-.15-.04l-.7-.13-.36-.11c-.05-.02-.11-.04-.17-.06-.15-.09-.33-.16-.5-.19l-.11-.02c-.2-.07-.45-.11-.66-.1-.12-.03-.25-.05-.38-.05h-.11c-.05,0-.1,0-.16.01-.06,0-.12-.01-.18-.01h-.17c-.3,0-.59.09-.83.25l-2.8,1.88-2.37.28-.52.04s-.07,0-.1,0l-.72.05c-.09,0-.19.02-.28.04-.04,0-.09,0-.13,0l-1.26.15c-.05,0-.11.01-.16.03l-.47.07c-.08,0-.16.03-.24.05l-.32.09c-.2,0-.4.05-.58.13l-.07.02c-.09,0-.17.02-.26.04h-.39c-.06,0-.11,0-.17,0-.06,0-.11,0-.17,0h-.28c-.26-.07-.54-.06-.8.01h-.01c-.16.03-.31.07-.45.14l-3.36,1.64-3.95,2c-.47.24-.78.71-.82,1.23l-.09.03c-.58.22-.97.78-.97,1.4v.49s0,.04,0,.06c-.27.24-.44.57-.49.92,0,0,0,0,0,0l-.11.05s-.08.04-.12.06l-1,.56-.15.07c-.08.03-.15.08-.23.12l-.44.29c-.11.07-.21.16-.3.27l-.51.58-.67.64c-.16.16-.29.35-.37.56l-.11.29c-.06.17-.1.35-.1.53v.34c0,.12.01.24.04.35l.15.61.08.66-.05.83v.34c0,.08,0,.16.02.24l.03.18-.04.72-.05.28-.65,1.18c-.19.34-.24.74-.14,1.11l.27,1.06-.05,1.1c0,.2.02.4.09.59l.17.44c.1.25.26.48.47.65l.99.78.08.35s.02.08.03.11l.17.59c.06.23.19.44.35.62l.38.41.17.44c.03.1.07.2.12.29l.2.4.08.41c.01.08.04.15.06.23l-.4.16c-.77.3-1.15,1.15-.86,1.92l.05.15c.05.13.11.25.19.36l1.58,2.23s.05.07.07.1l.26.32.5,1.51c-.05.07-.09.14-.13.22l-.1.21h-.12c-.42.03-.81.23-1.08.56l-.12.15-.37.23-1.13.25-.41.04c-.2.02-.4.08-.58.18l-.44.25c-.07.04-.13.08-.19.13l-.44.34c-.1.08-.2.18-.28.28l-.37.5-.28.27-.2.09c-.07.03-.13.06-.19.1l-.7.44-.93.43c-.19.09-.37.21-.51.37l-.44.49c-.1.11-.17.22-.24.35l-.28.59-.46.67-.63.75-.36.05c-.25.03-.49.14-.68.29-.12.06-.24.14-.34.23-.03,0-.06.01-.09.02l-2.65.57-1.16.29c-.05.01-.1.03-.16.05l-1.31.48c-.18.06-.35.16-.49.29l-.57.5-.42.21c-.1.05-.19.11-.27.17l-.5.39c-.09.07-.16.14-.23.23l-1.08,1.33-.08.07s-.08.07-.11.11l-1.2,1.32-.92,1.09-.86.66s-.09.08-.14.12l-.72.74s-.08.08-.11.13l-1.04,1.38-.76.68c-.07.06-.14.13-.19.21l-.83,1.08s-.05.07-.07.1l-.9,1.35-.68,1.16-.36.81c-.08.18-.12.38-.12.58v.29c0,.19.04.39.11.57l.22.54c.02.06.05.11.08.17l.17.29c.03.06.07.12.11.17l1.27,1.67c.28.37.71.58,1.17.59l5.83.1h1.11c.1,0,.2,0,.29-.03l.29-.06,5.1.42,5.88.69,6.63.69c.05,0,.1,0,.15,0h1.14l2.91.29c.12.01.23,0,.35,0l1.32-.18,1.87.05c.06,0,.12,0,.18,0l5.03-.49c.07,0,.14-.02.21-.04l4.13-1.01,5.83-1.76c.05-.02.11-.03.16-.06l.94-.39s.08-.04.12-.06l5.69-2.96.93-.43,3.83-1.06c.06-.02.12-.04.18-.06l1.97-.85.41-.06h1.21l1.2.3c.2.05.41.05.62,0l.78.04s.08,0,.13,0l1.27-.05c.07,0,.13,0,.2-.02l1.64-.28.59-.04.24.03c.05,0,.11.02.17.02l.77.05c.06,0,.11,0,.17,0l1.27-.07c.11.19.26.36.46.5l1.22.83c.2.14.44.23.68.25l.8.09,1.25,1.16s.08.07.12.1l.24.46s.03.06.05.09l.17.29s.05.09.09.13l.15.21,1.29,14.32c.07.78.72,1.37,1.49,1.37.03,0,.07,0,.1,0l29.58-2.01c.4-.03.78-.22,1.04-.52.26-.31.39-.71.35-1.11l-1.3-14.15,2.96-.26c.06,0,.11,0,.16,0l7.21-.63c.06,0,.13-.02.19-.03l3.49-.76,2.33-.18,2.59-.05s.08,0,.12,0l2.38-.2c.11,0,.22-.03.33-.07l2.23-.71,1.51-.28c.08-.02.17-.04.25-.07l1.78-.65,1.62-.35,2.27-.34,1.31-.04,1.02.05h.98s1.49-.1,1.49-.1c.43-.03.83-.24,1.09-.58.26-.34.37-.78.29-1.2l-.03-.74,1.6-.13c.05,0,.1-.01.16-.02l1.42-.27,1.1-.28,3.39-.5,1.05.08s.08,0,.12,0h.88s1.28.05,1.28.05h1.23s2.84-.15,2.84-.15c.4-.02.77-.21,1.04-.5.27-.3.4-.69.37-1.09l-.11-2.45s0-.1-.01-.15l-.08-.63,3.76-.44s.1-.01.15-.03l1.81-.42,1.04-.31.95-.12h.4c.07,0,.14,0,.21-.01l2.34-.35c.08-.01.15-.03.23-.05l2.73-.89s.1-.04.15-.06c.07-.02.14-.05.2-.09l1.82-.98s.08-.05.12-.08l2.27-1.52s.07-.05.11-.08l1.1-.93c.38-.34.56-.85.49-1.35l-.17-1.08c-.05-.35-.23-.67-.49-.9l-1.23-1.52-.23-.27.16-.2s.03,0,.04.01l1.67.37.44.16.52.3.29.32c.46.51,1.22.64,1.83.31l1.99-1.08c.16-.08.3-.2.41-.33l3.52-.79.6-.11c.26.23.6.38.97.38.37,0,.74-.13,1.02-.37l1.61-.17v1.36s-.05.93-.05.93c-.02.41.15.82.43,1.12.34.36.89.54,1.38.45l2.6-.43,4.77-.29c.71,0,1.31-.57,1.46-1.26l.43-1.64,1.91.12.33.18c.06.03.13.06.19.09l.39.15c.17.07.35.1.54.1h.34l-.09.43s-.01.07-.02.11l-.52,1.93c-.02.07-.03.16-.04.25l-.08.31c-.03.12-.04.34-.04.46,0,.23.05.45.15.66l.04.07c-.1.08-.2.17-.27.28l-.77,1.03c-.43.58-.39,1.38.09,1.91l2.1,2.3s.02.02.03.03c.11.19.25.35.42.47,0,0,0,0,0,0l.28.29s.06.07.1.1l.53.47.1.11c.05.05.09.1.15.15l.05.07c.01.3.12.6.3.84l.44.67c.06.11.14.21.23.31.02.03.04.07.06.1l.02.53c0,.11.01.22.04.33l.06.24c.03.14.08.28.16.4l.38.62s.04.06.06.09l.11.15c.57.75,1.83.75,2.4,0l1.26-1.56,1.84-1.22c.51.42,1.25.46,1.8.07l1.13-.81.86-.5c.09-.05.17-.11.25-.18l1.27-1.13.79-.65s.08-.07.12-.11l.39-.39c.34-.34.49-.82.41-1.29l-.05-.33.5-.22c.11-.05.21-.11.31-.19l.75-.55.05.06s.06.08.1.11l.72.74s.05.05.08.08l.69.65c.08.08.16.15.25.21l1.17.76.45.36,1.45,1.52s.1.09.15.13l5.39,4.3.62.76s.07.08.11.12l.98.97,1.38,1.27c.08.08.18.15.28.2l1.16.66,1.1.69s.08.05.13.07l2.54,1.34c.08.04.16.08.24.11l1.47.5,1.22,1.49s.08.09.12.13l1.38,1.31,1.05,1.13s.05.05.08.08l1.21,1.12,1.39,1.44,1.68,1.54.39.32.69,1.18c.12.21.29.38.49.51l1.02.65,1.16,1.16s.06.06.09.08l1.38,1.18c.28.24.62.36.97.36.16,0,.33-.03.49-.08.5-.17.87-.6.98-1.12l.11-.54c.02-.1.03-.2.03-.3v-.54c0-.09,0-.19-.03-.28l-.25-1.69v-.44c0-.57-.33-1.09-.84-1.35l-.41-.2.43-.93s.03-.07.04-.1l.17-.42,1.13-1.18.74-.86.83-.28h.23c.1,0,.2-.01.3-.03l.84.07s.09,0,.13,0l.5.04c.14.02.27.01.41-.01l2.19-.39s.07-.01.1-.02l1.8-.39c.06-.01.11-.03.17-.05l.88-.29s.07-.02.1-.04l.83-.34s.07-.03.1-.04l1.19-.57c.13-.03.25-.08.36-.14l.88-.46s.07-.04.1-.06l.67-.31c.09-.04.18-.09.26-.15l.57-.32c.06-.03.12-.06.17-.1l.73-.43c.09-.05.18-.11.26-.18l.18-.16c.31-.29.49-.69.49-1.12s-.18-.83-.5-1.11l-.17-.15s0,0,0,0l-.62-.96c-.05-.08-.11-.15-.17-.21l-.58-.73v-.34s.34-.98.34-.98c.03-.08.05-.15.06-.23l.2-.83c.03-.12.05-.25.05-.38v-.25c0-.07,0-.13-.01-.2l-.11-.83c-.01-.1-.03-.19-.06-.28l-.17-.49c-.07-.21-.18-.4-.33-.56l-.36-.38v-5.64l.05-.04s.13-.1.16-.13l.32-.29s.07-.04.1-.06l.95-.55.67.13c.09.02.18.03.28.03h1.58c.32.54.95.84,1.59.71l2.29-.45s.07-.02.11-.03h0l2.1-.41c.58-.13,1.01-.59,1.14-1.14l.43-.1c.1,0,.19-.01.29-.03l1.58-.32c.07,0,.14-.02.21-.03l1.77-.34c.69-.15,1.17-.86,1.17-1.56,0-.21-.04-.42-.13-.62l-.17-.54c-.01-.06-.03-.12-.05-.18l-.17-.53c-.02-.09-.04-.19-.08-.28l-.25-.67c.14-.17.24-.38.3-.59l.2-.81.47-1.29c.06-.16.09-.33.09-.51l.16-.78c.21-.24.36-.54.38-.88l.09-1.01s.03-.1.04-.15l.28-1.18s.02-.08.02-.12l.16-1.2.52-1.55c.04-.09.07-.19.09-.29l.12-.68c.01-.08.02-.16.02-.24v-.56c.09-.12.16-.26.2-.4l1.12.21c.09.02.17.03.26.03l2.2.79s.06.02.1.03l.17.05c.12.03.29.05.41.06l.95.04,2.99,2.44,2.25,1.77c.07.08.14.16.21.22.03.02.05.05.08.07l2.74,2.19c.29.27.69.4,1.08.39.4-.02.77-.2,1.04-.49l.33-.33s.06-.05.08-.08c.03.01.05.03.08.04l.57.3s.1.05.15.07l2.43,1.1c.4.18.85.17,1.25-.01.1-.05.2-.11.28-.17l.53.38c.34.24.76.33,1.17.25.41-.08.76-.33.98-.69l.68-1.11.75.61s.06.05.1.07l3.02,2.1c.06.04.12.08.19.11l.77.39s.07.04.11.05l.72.29c.09.04.18.07.28.08l.5.1c.1.02.19.03.29.03l1.1.35c.07.02.14.04.21.06l.63.13.65.21.36.21s.1.05.15.08l1,.42.95.42s.07.05.11.07l1.61,1.04c-.03.15-.03.31-.01.47.06.41.28.78.62,1.02l.28.2c.08.06.16.1.25.14l.11.05s.08.03.12.05l.28.1c.06.02.12.04.18.05.05.02.11.04.17.06.08.07.17.13.26.18l.44.25c.08.04.16.08.25.11l.1.05c.05.03.11.05.17.08l.39.15c.09.03.18.06.27.08l.74.11c.06,0,.12.01.19.01h.28c.11,0,.22-.01.33-.04.15.08.32.14.5.17l3.57.5s.07,0,.11,0l7.44,1.01.38.09c.44.1.91-.03,1.26-.32.08-.07.16-.14.22-.22.25-.24.41-.57.44-.92l.03-.3v-.03c.32-.68.07-1.49-.57-1.89l-1.32-.78-1.21-.84s-.06-.04-.09-.06l-1.82-1.15-2.1-1.52c-.08-.05-.15-.1-.24-.14l-.7-.5-.28-.24s-.08-.06-.12-.09l-.78-.56.86-1.45,1.87-2.46.84.09.96.22c.05.01.11.02.16.03l1.09.13.62.18,1.92.85.94.49c.12.07.26.11.39.14l.66.13.62.18.86.46.97.75c.2.25.47.43.79.52.04.01.08.02.12.03l.05.04s.06.05.09.07l1.58,1.02.97.52c.08.06.17.11.26.16l5.37,2.5,2.4,1.37.66.44s.08.05.12.08l.45.24c.14.17.33.31.53.4l.11.05s.09.04.13.05l.44.15c.22.07.46.1.69.06l.11-.02,1.58.76.43.27.42.33,1.16,1.29c.26.32.63.52,1.04.56.42.04.81-.1,1.12-.37l.22-.18c.26-.16.47-.39.6-.67l.44-.7c.04-.05.08-.11.11-.17l.36-.56s.06-.09.08-.13l1.05-1.71c.05-.08.09-.17.12-.27h.57c.06,0,.13,0,.19-.01l.24-.03.74.11.06.02c.14.04.28.06.43.06h.17c.53,0,1.01-.28,1.28-.71.02-.01.04-.02.06-.03l.5-.2c.11-.04.21-.1.3-.17l.11-.08c.06,0,.12.01.18.01h.69l.36.24c.37.25.83.32,1.26.19.43-.12.78-.43.95-.84l.49-1.12h0c.06-.09.12-.19.16-.29l.33-.74c.03-.07.06-.15.07-.23l.85-.29c.06-.02.13-.05.19-.08l1.32-.67,6.55-3.64,1.6-.75,1.63-.32,1.68.08,1.54.49,1.47.78,1.06,1.01.74,1.4,2.05,4.81.66,1.38c.05.1.11.2.18.28l.94,1.18s.05.06.08.09l1.88,2.01s.06.06.09.09l2.61,2.37,12.48,10,3.7,3.76c.29.3.68.45,1.07.45.29,0,.58-.08.83-.25l1.36-.95c.58-.41.79-1.17.52-1.82l-1.04-2.42-1.05-2.65c-.05-.12-.11-.23-.18-.33l-2.76-3.8s0-.03,0-.04l-.04-.5,3.11-1.21c.25-.05.48-.17.67-.34l7.57-6.62c.33-.29.51-.79.51-1.23,0-.11-.01-.22-.04-.33l-.21-.85v-.08s1.79-.58,1.79-.58l.72-.2c.47-.13.85-.48,1.02-.94s.1-.97-.18-1.37l-.96-1.32,1.27-.56s.04-.02.06-.03c.05-.02.1-.04.15-.07l.56-.29c.43-.19.75-.57.86-1.04.05-.23.05-.46,0-.68l.51-.32c.11,0,.23,0,.34-.02.56-.1,1.02-.51,1.18-1.06l.61-.87s.06-.09.08-.13l1.63-1.78.11-.1s.08-.07.12-.11l.22-.25c.3-.34.44-.8.37-1.25s-.35-.84-.74-1.06l-.53-.3s.05-.01.07-.02l.81-.26c.08-.02.16-.05.24-.08l.78-.34.69-.16,1.25.08,1.97.22,1.57.54s.07.02.11.03l.55.15c.12.03.25.05.38.05h1.6l3.2.23,2.57.55,1.55.39c.06.01.12.03.18.03l1.5.31c.51.12,1.06-.03,1.43-.42.3-.31.44-.72.42-1.14l2.6.18,2.22.27,1.93.43c.11.02.22.04.33.04h.17c.63,0,1.19-.39,1.41-.97l.2-.53,1.5-2.78c.09-.11.16-.25.22-.38l.68-1.18,2.46.63c.14.07.3.12.46.15.03.01.05.02.08.04.03.02.07.03.1.05.03.01.05.03.08.04.06.05.13.09.2.13.04.03.08.07.08.07l.15.13s.06.08.1.12l1.14,1.39c.31.38.79.58,1.29.54.49-.04.93-.33,1.18-.76l1.35-2.4.09-.14.14.07c.72.35,1.58.06,1.96-.64l.72-1.32c.03-.06.06-.12.08-.19l.73-1.6c.09-.2.14-.42.14-.64v-.15c0-.48-.23-.92-.61-1.21ZM387.27,142.84l-2.4.04v-.09c-.1-.56-.5-1.01-1.03-1.19l-1.49-.49c-.17-.06-.35-.08-.53-.07-.17,0-.35.04-.51.1-.02,0-.05,0-.07.01l-1,.17-.2-.03c-.18-.08-.38-.12-.58-.12l-.7.02-.87.03c-.19,0-.36.05-.53.13-.02,0-.05.01-.07.02h-.18c-.17-.06-.35-.1-.54-.1h-1s0,0-.01,0h0c-.31,0-.66.13-.92.32l-.12.08-.27.08-.36-.03c-.26-.18-.58-.27-.91-.26-.11,0-.21.02-.32.05l-.63.11c-.38.04-.73.23-.97.52-.16-.07-.32-.11-.49-.13-.01,0-.02,0-.04,0-.15,0-.3,0-.45.03h0s0,0-.01,0l-1.05.27c-.11-.03-.21-.05-.32-.06-.02,0-.03,0-.05,0-.09,0-.17,0-.26,0h-.01s0,0,0,0l-.26.03h-.1s0,.01,0,.01h-.01s-.09.01-.13.02l-.97.22c-.44.04-.84.27-1.09.64-.2.29-.29.64-.26.98l-.79,1.38-.64-.75-.41-1.63c-.14-.56-.59-.97-1.13-1.09-.07-.02-.15,0-.22,0-.11,0-.21-.03-.32-.01h-.04s-.73.12-.73.12l-2.52.55.55-1.76c.13-.36.12-.75-.02-1.09-.02-.08-.05-.16-.09-.23l.02-.23c.02-.21,0-.42-.06-.61l-.16-.49c.03-.22,0-.44-.07-.66l-.74-2.24s.04,0,.07,0h.14c.27,0,.53-.07.76-.21l.55-.31c.05-.03.11-.06.16-.1l2.07-1.39.33-.25s.07-.06.11-.09l.55-.49s.07-.06.1-.09l.85-.97c.07-.09.13-.19.18-.29l.36-.64c.22-.35.28-.77.18-1.17-.06-.24-.18-.46-.35-.64h.51c.65.06,1.27-.39,1.47-1.03l.08-.26,3.35-2.75.03-.03c.19-.05.38-.15.54-.28l1.17-.96,2.23,2.05,1.01.94s.06.06.1.08l1.22.98s.1.08.15.11l1.72,1.07c.09.07.19.14.29.19l2.01.97,4.99,2.07c.05.02.1.04.16.05l1.22.34s.08.02.11.03l1.28.26,1.27.2s.08.01.12.01h.07s1.33.1,1.33.1l1.16.04h.09c.06,0,.12,0,.18,0h.01s0,0,0,0h.02s1.31-.11,1.31-.11l.37-.06.9-.09s.07,0,.1-.01l5.34-.87.97-.13.17-.02s0,0,.01,0h.11s.36-.08.36-.08h1.11s.7-.05.7-.05l2.61.23.73.17.59.34.33.32.23.49s0,.02,0,.03l.15,1.17-.1,1.27s0,.08,0,.12v.12s-.05,1.01-.05,1.01l-.26,2.38-.16.7-.7.72-.61.5-5.7,2.84-1.17.21-11.45-1.3-.5-.05s-.1,0-.15,0h-.01s-.01,0-.02,0ZM432.61,50.23l.16,1.99c0,.07.01.13.03.2l.03.21c0,.18.03.35.09.52l.04.2c.02.12.06.23.11.34l.16.43c.03.1.07.19.12.28l.17.29c.03.06.07.11.11.16l.34.48c.11.17.26.31.43.42h0s.05.06.08.09l.39.39s.05.05.08.07l.36.32.24.27s.03.05.05.08l.2.28.22.47s.03.06.05.09l.11.2c.09.16.21.31.35.42l.08.59.11,2.77.16,1.43c0,.21.05.41.13.6l.11.25c.03.07.07.14.11.2l.67.97s.08.1.14.15l.26.32.11.19c.03.06.08.13.14.19l.15.64-.21.78c-.06.2-.07.41-.04.61l-.37.63c-.04.06-.07.13-.1.2l-.08.15c-.05.08-.08.17-.11.26l-.11.34c-.02.07-.04.15-.05.23l-.29,2.64c-.03.25.01.51.11.74l-.25,1.03s0,.03,0,.04c0,.01,0,.02-.01.03l-1.39,2.39s-.04.07-.05.1h0c-.11.14-.19.28-.25.44l-.07.15c-.11.2-.17.41-.18.63-.03.08-.04.17-.06.25,0,.02-.01.03-.02.05l-.07.1s-.04.06-.06.09c-.08.08-.15.18-.21.28l-1.55,2.65c-.18.31-.24.67-.18,1.02-.27.13-.5.34-.65.6l-1.9,3.27-.34.33c-.08.07-.14.15-.2.23l-.07.06h0c-.08.07-.15.15-.22.24-.14.14-.26.32-.34.51l-3.27,5.52-.31.5s-.03.04-.05.05c-.12.1-.23.21-.32.35-.02.02-.04.04-.06.06l-3.53,5.98c-.05.08-.08.16-.12.24l-.32.54c-.08.13-.13.26-.17.4l-.38.62s-.05.09-.07.13l-.36.66c-.13.11-.25.24-.34.39l-6.67,11.4s-.07.09-.11.14c-.06.07-.12.15-.17.24l-.87,1.54-.08.09c-.06.07-.12.15-.17.24l-.39.68-1.1,1.84-.11.16c-.13.11-.23.24-.32.38l-.66,1.13s-.05.09-.08.14l-.22.49c-.04.09-.07.19-.09.29l-.09.4c-.07.18-.11.37-.11.57v.39c0,.06,0,.11,0,.17l.05.49c0,.05.02.11.03.16l.11.49c.02.1.05.19.1.29l.22.49c.03.07.07.13.11.2l2.16,3.34s.04.06.06.09c.01.03.03.05.04.08.02.03.03.06.05.09,0,.01.01.02.02.03.04.11.09.22.15.32v.03s.04.06.05.09c.02.05.03.1.05.15.02.05.04.11.06.16.02.05.03.09.05.14,0,.01,0,.02.01.03.01.07.04.14.06.21.03.12.07.23.12.34l.15.62h0c-.16-.15-.36-.25-.57-.32l-.34-.1c-.14-.04-.28-.06-.42-.06-.02,0-.05,0-.07,0-.03,0-.06,0-.09,0-.14.01-.27.04-.4.1-.02,0-.03,0-.05.01l-.11.05s-.03.02-.04.02c0,0,0,0,0,0v-.03c-.09-.16-.2-.31-.33-.44l-.66-.64c-.09-.09-.19-.16-.29-.22l-.94-.54c-.13-.07-.26-.12-.4-.16l-1.05-.25c-.07-.02-.15-.03-.22-.04l-2.8-.24c-.08,0-.16,0-.23,0h-.55s-1.37.05-1.37.05c-.1,0-.19,0-.29.03l-5.94.93-1.01.18-2.4.23-2.39-.14-1.14-.18-1.16-.23-1.08-.31-4.81-1.99-1.78-.86s-.04-.03-.07-.04l-1.75-1.08-1.09-.88-3.74-3.45c-.07-.1-.15-.19-.24-.27l-.18-.16-1.43-1.39-.99-1.24-.8-1.29-.43-.83-.41-.96-.54-1.91-.13-1.65c.02-.08.03-.17.04-.25l.05-.79,4.5-17.04c.04-.09.08-.19.11-.29l1.08-4.28.82-2.14,1.02-1.89,1.92-2.68,1.73-2.78c.03-.06.07-.11.09-.17l.69-1.56,1.73-3.11,3.07-5.31,1.18-1.34,1.9-1.42,2.29-1.01,2.49-.69,2.26-.45,3.09.13,9.65,4.02c.15.06.31.1.48.11h0s0,0,0,0l2.71.18,1.76.12s0,0,0,0h0c.22.02.45-.02.66-.1l4.04-1.62c.11-.05.22-.11.32-.18l4.81-3.48c.14-.1.26-.23.36-.37l2.72-3.92,4.96-4.55c.12-.11.23-.25.31-.39l1.33-2.45c.09-.17.15-.35.17-.54l.12-1.04.35-.16.08.59ZM229.06,79.26l19.96-1.53c.18-.01.35-.06.52-.14l15.18-7.05,20.06,1.54c.24.02.46-.02.67-.1l9.56-3.83,9.28-3.66,5.91-.82,7.31-.82c.16-.02.32-.06.47-.13l12.03-5.56,4.5-1.5,3.21.13,3.29.97,3.51,2.1,2.85,3.84,1.75,7.01c.05.2.14.39.26.55l1.53,2.03c.19.27.47.46.79.55l2.82.83c.26.08.53.08.79.02l3.37-.83c.18-.04.35-.12.51-.23l.28-.2s.07-.05.11-.08l1.6-1.37c.15-.13.27-.28.36-.45l1.82-3.53c.1-.19.15-.4.17-.61l.28-5.38.17-4.97.21-3.83.63-2.55,1.09-1.85,1.7-1.95,1.7-.44,1.81.38,3.4,3.06.81,1.1,1.22,1.82c.31.46.83.71,1.4.66l3.32-.34c.25-.03.5-.12.71-.26l3.43-2.4c.25-.18.44-.43.55-.72l1.6-4.42c.09-.26.12-.55.06-.82l-.88-4.22c-.06-.31-.23-.59-.46-.8l-2.43-2.21c-.28-.25-.63-.39-1.01-.39h-2.93c-.23,0-.46.05-.66.15l-5.57,2.76-3.1-1.08-1.69-1.31-.42-1.46.71-1.41,7.7-6.27c.11-.09.2-.19.28-.3l4.2-5.94c.08-.11.14-.23.18-.35l1.27-3.48c.05-.13.08-.27.09-.41l.32-4.82.85-3.3,1.79-3.17,4.66-2.45,1.11.05,1.02.8.3,1.37.93,16.36.06,1.13c0,.12.03.23.06.35l1.42,4.84,2.76,12.33c.01.06.03.11.05.17l.44,1.28c.05.16.13.3.24.43l.88,1.13c.09.11.19.21.3.29l1.16.83c.12.09.26.16.4.21l1.33.44c.07.02.14.04.21.05l1.94.34c.07.01.14.02.21.02.06.01.11.03.17.03l16.58,2.4c.08.01.15.01.23.02l4.54-.05,1.26.25.88.59.26.42-.13,1.1-1.07,1.98-4.9,4.49c-.08.07-.15.16-.21.25l-2.68,3.87-4.45,3.22-3.55,1.42-1.53-.1-2.35-.16-9.66-4.03c-.16-.07-.34-.11-.51-.11l-3.54-.15c-.12,0-.24,0-.35.03h-.03s-2.47.49-2.47.49c-.04,0-.07.02-.11.03l-2.65.74c-.07.02-.14.04-.21.07l-2.54,1.13c-.1.05-.2.1-.29.17l-2.16,1.62c-.08.06-.16.13-.23.21l-1.38,1.57c-.06.07-.12.15-.17.24l-1.88,3.24-3.05,5.42s-.04.08-.06.12l-.68,1.53-1.6,2.57-1.94,2.7c-.04.05-.07.11-.1.17l-1.11,2.06c-.03.06-.06.11-.08.17l-.88,2.31c-.02.06-.04.11-.05.17l-1.06,4.18c-.04.09-.07.18-.1.27l-3.1,11.78-1.22,4.52-.28,1.08c-.02.09-.04.19-.04.28l-.04.66c-.06.17-.08.36-.07.54l.06,1.16.11,1.08c0,.07.02.15.04.22l.3,1.15.33,1.08c.02.05.03.1.05.15l.48,1.12.5.98s.04.08.06.11l.88,1.42c.03.05.07.1.11.15l1.11,1.37s.07.09.12.13l.31.3-.44.36c-.23.06-.45.17-.63.33l-4.1,3.39c-.11.09-.21.2-.29.32l-.65-.02c-.66-.05-1.25.4-1.47,1.02l-.36,1.1-.38.76c-.27.52-.2,1.14.13,1.58l-.17.19-2.13,1.54c-.22-.22-.5-.36-.79-.41-.29-.06-.61-.03-.9.1l-1.04.46-.38.12c-.19.07-.42.22-.58.35-.44.39-.61,1.01-.43,1.57l.45,1.44-1.68.37-2.7.59c-.23.05-.44.16-.62.3l-.74.11c-.09,0-.17.02-.26.05h-.26c-.11,0-.23.02-.35.05h-1.09c-.37,0-.72.14-.99.37l-5.18-.26-.37-.03-4.54-1.99-.15-.11s-.07-.05-.1-.07l-.42-.25-.32-.24c-.14-.11-.3-.18-.46-.23l-.23-.19s-.08-.07-.13-.1l-2.7-1.95c-.05-.06-.1-.11-.16-.16l-.17-.15s-.08-.06-.12-.09l-1.11-.8s-.1-.07-.15-.1l-3.07-2.01s-.06-.04-.09-.06l-.67-.48s-.06-.04-.09-.06l-.89-.76c-.07-.06-.15-.12-.23-.17l-.55-.42c-.05-.04-.1-.09-.16-.12l-1.38-.99s-.08-.06-.13-.09l-.33-.2-.27-.22c-.07-.06-.14-.12-.22-.16l-.34-.2s-.1-.05-.15-.08l-.82-.41c-.16-.08-.33-.12-.5-.14-.05,0-.09-.02-.14-.02-.01,0-.03-.01-.04-.02l-.22-.1c-.13-.06-.27-.1-.41-.12-.14-.02-.29-.02-.43,0l-.12.02c-.05-.01-.1-.02-.16-.03l-1.04-.49c-.13-.06-.27-.11-.41-.13-.08-.23-.22-.45-.42-.62l-.18-.17c-.04-.12-.09-.24-.16-.34l-.28-.44c-.03-.05-.07-.1-.1-.15l-.28-.34c-.21-.27-.51-.45-.84-.52-.11-.03-.22-.04-.33-.04l-.06-.04c-.14-.08-.29-.14-.44-.17-.46-.1-.95.01-1.32.33-.02.02-.1.08-.11.1l-.19.18c-.25.04-.47.14-.67.29-.06,0-.11.02-.17.03l-1.22.33c-.14.03-.28.08-.41.14-.03.01-.07.03-.1.04-.04.02-.08.03-.12.05-.04.02-.08.03-.11.05-.04.01-.07.03-.11.05-.06.02-.12.04-.18.07l-1.07.42-.37.15-.04.02-.67.27-.43.23-.25.11-.43.24-.71.38s-.06.03-.09.05l-.55.34s-.14.11-.19.14l-2.43,1.86-.9.55-1.49.71-12.88,3.44h-.2s-3.36-.1-3.36-.1h-1.61l-.22-.03c-.41-.06-.83.05-1.15.31-.01,0-.03.02-.04.03l-.29-.17-.33-.3c-.33-.3-.77-.42-1.2-.36-.14.02-.28.06-.42.12-.07.03-.14.07-.21.11h-.45c-.11,0-.22.01-.32.03-.1.02-.2.06-.3.1l-3.58-.22-.11-.03c-.07-.02-.14-.03-.21-.03l-6.51-.54c-.18-.02-.36,0-.53.05l-.18.05-.1.03-.91-.7c.06-.26.05-.54-.04-.8-.13-.4-.42-.73-.8-.9l-1.71-.79c-.27-.12-.56-.16-.84-.12l-2.58-1.97s-.06-.04-.09-.06l-4.59-2.99c-.39-.25-.88-.31-1.32-.16h0s0,0,0,0l-6.95,2.49c-.06-.15-.14-.28-.24-.41l-1.33-1.62c-.13-.16-.3-.28-.48-.38l-.53-.68-.78-1.32-.46-2.04v-.34c.27-.15.5-.39.63-.68.22-.47.18-1.01-.1-1.44l-.32-.77c.01-.16,0-.33-.05-.5l-.18-1.01c0-.06-.02-.12-.03-.18l-.54-2.31s-.02-.09-.03-.13l-.21-.66v-.36c0-.17-.03-.34-.08-.5l-.28-.79c-.02-.06-.04-.11-.07-.17l-.35-.7-.6-1.59s-.04-.1-.07-.14c0,0,0-.01,0-.02-.02-.05-.03-.09-.05-.14-.02-.05-.04-.11-.06-.16-.03-.1-.08-.2-.13-.3v-.02c-.03-.12-.07-.23-.13-.34l-.5-.98s-.03-.06-.05-.09l-.48-.82c-.03-.06-.06-.12-.09-.17-.01-.02-.02-.04-.03-.06-.06-.15-.14-.29-.25-.42-.06-.11-.13-.21-.21-.3-.04-.07-.08-.13-.13-.19l-.47-.68c-.05-.11-.12-.22-.2-.32-.03-.05-.07-.1-.11-.14-.02-.02-.03-.05-.05-.07-.02-.02-.03-.05-.05-.07-.05-.09-.11-.18-.18-.26-.03-.05-.07-.1-.11-.14-.02-.03-.03-.05-.05-.08l-1.26-1.7c-.06-.09-.14-.17-.22-.24l-2.01-2.12s-.09-.08-.1-.1l-1.46-1.35-1.27-1.44-.94-1.35s-.06-.08-.09-.12l-.88-1.03c-.11-.13-.25-.25-.41-.33l-.52-.71s-.05-.07-.08-.1l-.54-.64,3.32-3.82.18-.19.44-.25c.59-.26.95-.87.89-1.51l-.06-.59c-.05-.52-.36-.97-.83-1.2l-.78-.4-.26-.2-.28-.33-.12-.41c0-.06,0-.12,0-.18ZM230.95,193.6l-.3.23-.94.42c-.21.09-.39.23-.54.4l-.33.39c-.25.29-.38.67-.35,1.06l.04.61-1.8,1.56-.81.46s-.1.06-.15.09l-.14.1c-.51-.42-1.24-.46-1.79-.09l-.22.15c-.06.04-.17.13-.22.17l-1.54,1.01s-.06.04-.09.06l-.95.7h0c-.08-.22-.21-.41-.38-.56l-.04-.08s-.04-.07-.07-.11l-.13-.19c0-.24-.08-.48-.2-.69l-.06-.1c-.05-.09-.13-.19-.21-.28l-.28-.37c-.06-.08-.13-.15-.2-.22l-.13-.14c-.05-.05-.1-.11-.15-.15l-.56-.49-.11-.12c-.09-.14-.2-.26-.32-.36-.06-.09-.14-.17-.22-.25l-1.12-1.22.39-.17c.37-.17.66-.47.8-.86s.12-.8-.06-1.17l-.49-1.01c.01-.05.02-.12.03-.19l.51-1.92c.02-.06.03-.14.04-.22l.47-2.03c.11-.48-.01-.99-.34-1.35l-.22-.25c-.34-.38-.85-.56-1.35-.48l-.54.09-.93.04-.51-.28c-.2-.12-.42-.19-.65-.2l-3.14-.19-.19-.03c-.76-.13-1.5.33-1.7,1.07l-.53,1.98-3.81.22s-.09,0-.13.01l-.99.15v-2.34c0-.44-.19-.86-.53-1.14-.34-.28-.78-.4-1.21-.34l-.86.14-2.41.28c-.22-.13-.48-.2-.74-.2h-.17c-.09,0-.19,0-.28.03l-5.96,1.28c-.45.1-.81.39-1.01.78l-.42.23-.74-.44c-.08-.04-.16-.08-.24-.12l-.66-.25c-.06-.02-.13-.04-.19-.06l-1.69-.38-.81-.27c-.59-.2-1.24,0-1.64.48l-1.58,1.94c-.48.56-.47,1.39,0,1.95l2.05,2.47-2.41,1.65-1.62.87c-.05.02-.1.04-.15.07l-2.44.8-2.08.31h-.39c-.06,0-.13,0-.19.01l-1.16.15c-.08,0-.16.03-.24.05l-.83.25-1.88.45-4.12.48s-.07.01-.11.02l-.5.1c-.07.01-.14.03-.21.06l-.55.2c-.67.24-1.09.92-.98,1.63l.26,1.87.03.97h-4.5s-1.16-.08-1.16-.08c-.11,0-.23,0-.34.01l-3.68.54s-.08.01-.12.02l-1.07.27-1.25.23-2.3.18-.27-.03c-.43-.06-.87.06-1.2.35-.33.28-.52.7-.52,1.13v1.1h-.74s-1.02-.05-1.02-.05h-1.1c-.05,0-.11,0-.16,0l-2.92.42-1.83.39c-.07.01-.13.03-.2.06l-1.76.64-1.48.27c-.06.01-.12.03-.18.05l-2.16.69-2.15.18h-1.49s-3.71.25-3.71.25c-.07,0-.13.02-.2.03l-3.5.77-6.3.53-.81.09s-.07,0-.1,0l-4.53.39c-.4.03-.77.23-1.02.53-.26.31-.38.7-.34,1.1l1.3,14.12-26.58,1.81-1.2-13.26c-.02-.27-.12-.52-.27-.74l-.34-.48-.25-.48s-.04-.08-.07-.12l-.44-.74c-.19-.31-.47-.53-.79-.64l-1.08-1.06c-.24-.25-.56-.4-.91-.44l-.95-.1-.21-.14c-.07-.64-.55-1.17-1.2-1.3l-1-.2c-.13-.02-.26-.03-.39-.03l-1.61.09-.6-.04-.19-.03c-.09-.01-.17-.02-.26-.02h-.28s-.07,0-.1,0l-.72.05c-.05,0-.1,0-.15.02l-1.62.28-1.11.04-.99-.05s-.08,0-.13,0l-1.02-.25c-.12-.03-.24-.04-.36-.04h-1.49c-.07,0-.14,0-.2.01l-.72.1c-.14.02-.27.06-.39.11l-2.07.89-2.08.6-1.71.44c-.09.02-.18.05-.26.09l-1.11.52-5.7,2.97-.8.33-2.65.77-3.06.96-3.93.96-4.83.47-1.9-.05c-.08,0-.16,0-.24.01l-1.26.17-2.81-.28s-.1,0-.15,0h-1.14l-6.54-.68-5.91-.69-5.36-.44c-.14,0-.28,0-.42.02l-.35.07-6.01-.09-.77-1.01-.08-.14,1.49-2.38.7-.92.78-.69c.08-.07.15-.15.22-.24l1.02-1.37.6-.61.69-.53s.08-.06.12-.1l.17-.15c.05-.05.11-.1.15-.16l.96-1.14,1.11-1.22.11-.09c.06-.05.12-.11.17-.17l1.06-1.29.24-.19.46-.22c.12-.06.24-.14.34-.23l.5-.45,1-.37,1-.26,1.84-.36.68-.17.29-.04c.37,0,.72-.13,1-.38l.17-.15s.04-.03.05-.05l.2-.03c.2-.03.39-.09.56-.2l.33-.2c.12-.07.24-.17.34-.27l.77-.83c.06-.06.11-.13.16-.21l.7-1.05c.04-.06.08-.12.11-.19l.24-.49.88-.47c.05-.03.1-.05.15-.08l.68-.43.34-.15c.16-.07.31-.17.44-.3l.55-.54c.05-.05.11-.11.15-.17l.32-.43.19-.15.26-.06c.06,0,.12-.01.17-.03l1.54-.35c.15-.04.3-.1.43-.19l.77-.49c.07-.04.14-.09.2-.15h.19c.4-.04.77-.22,1.04-.52l.39-.44c.09-.11.17-.22.23-.35l.21-.45.13-.17c.1-.13.17-.27.22-.42l.17-.49c.11-.32.1-.67,0-.99l-.76-2.25c-.06-.18-.15-.35-.27-.5l-.4-.49-.54-.79c.74-.29,1.13-1.1.88-1.86l-.22-.69s-.02-.07-.04-.1l-.22-.55-.08-.44c-.02-.12-.06-.23-.11-.34l-.22-.49s-.04-.08-.06-.12l-.1-.25c-.02-.06-.04-.11-.06-.16l-.22-.49c-.07-.15-.16-.29-.28-.41l-.27-.29-.23-.99c-.06-.32-.23-.61-.48-.83l-1.08-.9.04-.86c0-.15,0-.3-.05-.44l-.18-.69.5-.94c.07-.13.12-.27.14-.42l.11-.59c.01-.06.02-.12.02-.19l.06-.98c0-.11,0-.22-.02-.33l-.04-.35.06-.88c0-.09,0-.19,0-.28l-.11-.88c0-.06-.02-.11-.03-.16l-.07-.28.31-.29s.07-.07.1-.1l.42-.49.27-.16s.09-.04.13-.07l.96-.54.89-.26c.21-.06.41-.17.57-.32l.11-.1c.12-.11.23-.24.31-.38l.17-.29c.16-.28.22-.6.18-.91.21-.25.33-.57.34-.89.49-.25.83-.75.83-1.34v-.16l6.15-3.05h.31c.25.07.52.07.77,0h.39c.13,0,.27-.02.4-.05.1,0,.2-.03.3-.06l.31-.09c.08,0,.17-.02.25-.04l.44-.11.32-.05s.09-.01.13-.02l1.26-.16h.08c.14,0,.28-.02.42-.06l.63-.04s.1,0,.15,0l3.4-.4c.37-.04.71-.23.95-.5l2.24-1.5h.06s.06,0,.1,0l.08.02c.11.02.24.04.34.04.02,0,.03.01.05.02l.11.05c.13.05.26.09.39.11,0,0,0,0,0,0l.49.15c.05.02.1.03.15.04l.7.13.26.08c.14.04.28.06.43.06h.55c.07,0,.13,0,.2-.01.37.1.73.08,1.05-.05l.08-.02s.04,0,.06-.02c.14,0,.28-.03.42-.08l1.14-.37h.38c.13,0,.26-.02.38-.05.13,0,.26-.03.38-.06l.17-.05s.08-.02.11-.04c.08,0,.17,0,.25,0l1.4-.15c.06,0,.12-.02.18-.03l1.29-.29c.06-.01.12-.03.18-.05l1.18-.3s.1-.02.14-.04l.28-.09.75-.03c.15,0,.29-.02.43-.06l3.31-.77.21-.05h.04c.15,0,.29-.02.43-.06l.49-.11,2.23-.13,2.81-.33h.13c.21,0,.42-.04.61-.13l.22-.1c.39-.17.68-.5.82-.9l.17-.2c.11-.14.2-.29.26-.46l.08-.07c.12-.1.22-.23.3-.36l.25-.22c.09-.08.17-.17.24-.26l.55-.77s.03-.02.03-.03l.94-.88c.08-.08.15-.16.22-.25l.08-.11c.13-.14.24-.31.31-.49l.33-.81c.1-.2.15-.52.15-.75,0-.03,0-.05,0-.08l.22-.15c.12-.08.22-.17.31-.28l.17-.2c.06-.08.12-.16.16-.24l.22-.19s.09-.06.13-.1l1.49-1.18,1.26-.83,1-.18,2.41-.17c.09,0,.19-.02.28-.04l.29-.07c.06,0,.13.01.19.01h.61c.09,0,.17,0,.26-.02l.98-.17s0,0,0,0c.12.52.51.96,1.04,1.11l1.02.36c.1.03.19.06.29.07l.66.1c.14.02.27.02.41,0l.16-.02h.05c.13.03.25.04.38.03l.99-.05s.09,0,.13,0l.44-.04.6.04c.4.04.78-.11,1.08-.36.35.18.77.22,1.15.09.15.05.31.08.47.08l1.12.16.33.08s.09.02.13.03c.14.07.3.12.46.15l.33.05s.07,0,.1.01l.61.05c.24.02.48-.02.7-.11l.6-.03c.08,0,.17-.02.25-.03l.22-.05c.09-.02.17-.05.26-.08l.3-.07c.19-.04.36-.12.52-.23l.3-.21.27-.08c.08-.02.16-.05.23-.09.04,0,.08,0,.12,0h.72c.12,0,.24-.01.36-.04l.15.11c.21.15.45.24.7.27.02.02.05.03.07.04l.17.1c.36.21.79.27,1.19.15h.01s.33.05.33.05c.18.03.37.02.55-.02.16.06.33.09.5.09h.45c.18.05.36.06.54.04l.25-.03.14.02c.13.02.26.02.38,0l.44-.05c.15-.02.3-.06.45-.12l.41-.18.69-.16.04.03c.11.08.23.15.35.19l.39.15c.17.07.35.1.54.1h.61c.83,0,1.5-.67,1.5-1.5v-.87l.08-.94c.51.08,1.02-.1,1.36-.47l1.69-.1c.06,0,.11,0,.17-.02l1.57-.3c.4-.08.75-.31.97-.65.22-.34.3-.76.21-1.15l-.69-3.15,4.85-1.28.29,2.53c.05.47.33.88.73,1.12.33.19.71.25,1.07.17l.04.19c.09.48.41.89.86,1.09l.22.1c.31.14.66.17.98.08l2.1-.53h.06s.94.03.94.03c.18,0,.35-.02.52-.07l.78-.25c.26-.08.5-.24.68-.44l.21-.24.52-.28.33-.13.33-.03c.12,0,.23-.03.34-.07l2.54-.88c.46-.15.82-.51.96-.98.13-.43.07-.89-.17-1.26l-1.26-3.44,2.55-.51c.11-.02.21-.05.32-.1l.04-.02c.65-.02,1.22-.46,1.4-1.09l.21-.74.57-1.71.09-.19c.03-.06.05-.12.07-.18l.13-.44,3.73.54,1,.2s.07.01.11.02l3.2.38.78.16,1.69.62.42.21c.45.22.97.21,1.41-.04.43-.25.72-.69.75-1.19l.06-.74.49-.15c.09-.03.17-.06.25-.1l2.51-1.33c.06-.03.12-.07.18-.11l1.28-.94,1.22-.75c.06-.04.15-.1.21-.16l.74-.57,3.87-2.27,1.46-.92,2.97-1.97c.06-.04.11-.08.16-.13l1.23-1.15.7-.74.95-.34c.1-.03.2-.08.29-.13l.82-.49c.07-.04.13-.08.19-.13l1.9-1.6,1.2-.53.56-.12c.18-.04.36-.11.51-.21l1.22-.79c.12-.08.23-.18.33-.29l1.3-1.52.73-.6c.18-.15.32-.33.41-.54l.26-.55c.16-.33.19-.7.1-1.04l2.24-3.4c.45-.69.27-1.62-.42-2.08l-.11-.07,1.61-1.85.71-.83,7.77,2.57c.42.14.87.09,1.25-.14l8-4.85.66-.39c.28-.17.5-.42.63-.73l5.03-12.36,5.6-2.29,2.88-.22.1.11c.03.24.12.48.27.68l.09.39c.04.17.11.33.2.48l.22.34s.04.06.06.09l.22.29s.07.08.1.12l.28.29c.05.06.11.11.17.16l.09.07-3.73,4.29s-.05.05-.07.08l-.22.29c-.07.09-.12.19-.17.29l-.11.25c-.17.39-.17.84,0,1.23l.11.25c.06.14.14.27.24.38l1.8,2.25c.13.18.31.33.5.44l.68.77.96,1.37s.06.09.1.13l1.38,1.57s.08.09.13.13l1.45,1.34s.03.02.05.04l1.8,1.93s.08.09.13.13l1.14,1.49c.05.11.12.22.2.32.03.05.07.1.1.14.05.09.11.18.18.26.03.05.07.09.1.14.03.05.07.1.11.14,0,.01.01.02.02.03l.6.87c.05.11.12.22.2.32.06.1.12.2.21.29.03.07.06.14.1.2l.53.89.37.72c.02.07.04.13.07.19.03.1.08.2.13.3.01.03.02.07.04.1.02.05.03.1.05.14.02.05.03.1.05.15.04.12.09.24.16.35l.52,1.4c.02.06.04.12.07.17l.35.7.16.46v.33c0,.15.02.3.07.45l.78,3.07.1.76s0,0,0,.01c-.04.24-.01.48.07.73l.11.31c-.19.25-.31.57-.31.91v1.72c0,.11.01.22.04.33l.55,2.45c.04.17.1.32.19.47l.9,1.51c.04.06.08.12.12.18l.45.58c.09.17.21.33.35.46l.32.29c.07.07.15.12.24.17l.85,1.04s.01.03.02.05c.04.12.1.25.17.36,0,.02.02.04.03.05.09.22.22.42.4.58l.33.44c.39.55,1.1.77,1.73.54h0s0,0,0,0l7.36-2.64,3.92,2.56,3.44,2.62c.27.21.62.32.93.31.08.35.28.67.58.89l2.25,1.71.13.11c.11.1.24.18.38.25l.11.05c.22.1.46.14.7.13.24-.01.48-.08.69-.21l.25-.11,6.16.51.12.03c.07.02.14.03.22.03l2.67.2,1.6.05c.21.01.42-.04.62-.12.02-.01.05-.01.07-.03h.63l.39.23c.05.03.1.06.16.08h0s.07.07.1.11c.05.06.1.12.16.16.05.04.1.07.15.1.06.04.12.08.19.11.02.01.04.03.07.04v.42s-.01.09-.01.13l.06.98c.02.41.21.77.49,1.03-.32.04-.62.18-.86.41-.3.28-.46.67-.46,1.08v4.07c0,.69.47,1.28,1.12,1.45-.04.31.03.64.19.92l.25.63c-.03.07-.05.16-.07.25,0,0,0,.01,0,.02-.02.05-.04.09-.05.14-.02.05-.04.1-.06.15-.06.14-.1.28-.12.42l-.03.13-1.65,1.34-.61.44c-.12.07-.23.15-.33.25l-.67.67-1.12.73c-.11.08-.21.17-.3.27l-.26.31-2.47,2.1c-.34.28-.54.69-.55,1.13,0,.44.17.86.5,1.15l.52.85c.14.25.34.44.58.57,0,.34.11.68.33.95.29.36.72.57,1.17.57h0s0,0,0,0h.5c.12.03.25.05.37.05h0s0,0,0,0h.27c.09.02.18.04.27.04h0s0,0,.01,0l.23.02c-.06.07-.12.14-.17.22l-.22.34c-.05.08-.1.17-.13.26l-.28.69c-.07.18-.11.37-.11.56v.34c0,.11.01.22.04.32l-1.09,1.17-1.04.96-1.02.69-.87.51-.79.19c-.07.02-.14.04-.2.06l-.61.25c-.4.16-.71.48-.85.88-.09.26-.11.53-.06.79l-1.05.39-.66.2s-.07.02-.11.04l-1.44.52c-.06.02-.11.04-.17.07l-1.73.87-1.43.81c-.05.03-.11.07-.16.11l-.44.34c-.06.04-.11.09-.16.14l-.26.27-.34.27-.74.44s-.08.05-.12.08l-.61.44s-.08.06-.12.09l-.5.44s-.05.05-.08.07l-.72.74s-.09.09-.12.15l-1.08,1.38s-.07.09-.1.14l-1.46,2.39s-.03.05-.04.07l-.7,1.04s-.05.08-.07.12l-.57,1.06-.65.9-.75.84-1.22,1.18-.32.25s-.05.04-.08.07l-1.68,1.22-1.3.71-2.47.96-3.32.9c-.43.11-.79.41-.98.81s-.19.87,0,1.27l.11.23-4.55.81c-.17.03-.34.1-.49.19l-2.21,1.33c-.07.04-.13.09-.19.14l-2.02,1.74-1.47,1.06ZM389.32,187.17c-.48-.07-.95.1-1.27.42l-.16-.02c-.07-.01-.15-.02-.22-.02h-.11c-.06,0-.13,0-.19.01l-1.47.04c-.14,0-.29.02-.42.06l-.17.05c-.34.1-.64.32-.83.62l-.61.93c-.1.15-.16.31-.2.48l-.57.87s-.05.07-.07.11l-.41.65s-.06.08-.08.13l-.17-.17s-.08-.08-.13-.12l-.55-.44s-.09-.07-.14-.1l-.55-.34s-.06-.04-.09-.05l-1.11-.59s-.06-.03-.09-.05l-.8-.33c-.05-.02-.11-.04-.16-.05l-.39-.1c-.12-.03-.25-.05-.37-.05h-.12c-.07-.04-.14-.08-.21-.12l-.78-.41-.68-.45-2.58-1.47-5.33-2.49s-.09-.06-.15-.09l-1.02-.54-1.33-.86-.51-.41c-.18-.14-.38-.24-.59-.29l-.92-.71c-.07-.05-.13-.09-.21-.13l-1.1-.59c-.09-.05-.18-.09-.28-.12l-.83-.25s-.08-.02-.12-.03l-.51-.11-.84-.43-2.1-.93c-.06-.03-.12-.05-.18-.07l-.83-.25c-.08-.02-.16-.04-.24-.05l-1.13-.14-.97-.23c-.06-.01-.12-.02-.18-.03l-1.77-.2c-.52-.05-1.04.17-1.36.59l-2.42,3.17s-.07.1-.1.15l-1.62,2.78c-.38.67-.18,1.53.45,1.97l1.79,1.26.28.24s.08.06.12.09l.88.64c.07.05.15.1.24.14l2.02,1.46.61.4-3.31-.44s-.1,0-.16-.01l-3-.41c-.1-.08-.21-.14-.32-.2l-.11-.05c-.06-.03-.12-.05-.18-.07l-.17-.05c-.34-.11-.71-.08-1.04.07l-.11.05s-.01,0-.02,0l-.16-.02-.5-.19c-.07-.04-.14-.07-.22-.09l-.12-.06c-.07-.06-.14-.11-.21-.15l-.17-.1s-.03-.02-.04-.03c0-.31-.11-.61-.3-.86l-.11-.15c-.13-.18-.3-.32-.5-.43l-.71-.47-1.77-1.15c-.08-.06-.17-.12-.26-.17l-1.99-.86-.57-.32c-.09-.05-.19-.1-.29-.13l-.88-.29c-.06-.02-.12-.04-.17-.05l-.62-.13-1.36-.43c-.14-.04-.28-.06-.42-.06l-.29-.04-1.15-.53-2.92-2.02-1.25-1.02-.43-.46s-.12-.12-.16-.15c-.56-.5-1.41-.51-1.98-.01l-.11.1c-.1.09-.19.19-.27.3l-.81,1.22-.63-.39c-.35-.22-.77-.28-1.16-.18-.27.07-.51.21-.7.41l-.69-.34s-.08-.04-.12-.05l-.42-.17-.48-.25s-.05-.03-.08-.04l-.83-.56c-.63-.42-1.48-.31-1.98.26l-.27.31-1.61-1.27c-.08-.1-.16-.19-.26-.26l-2.41-1.9-3.37-2.75c-.27-.22-.6-.34-.95-.34h-.21s-1.03-.04-1.03-.04l-1.54-.56-.95-.32c-.14-.04-.28-.06-.42-.06l-1.53-.28s-.09-.01-.14-.02c-.07-.02-.14-.03-.21-.04l-.42-.08c-.1-.02-.2-.03-.29-.03l-.4-.06c-.48-.1-.98.03-1.34.37-.36.33-.53.82-.46,1.31l.06.39s0,.05.01.08c-.18.32-.25.71-.15,1.1l.07.26v.58l-.22.72s-.03.08-.04.11l-.39,1.29c-.03.09-.05.19-.06.29l-.15,1.14-.22.93c-.07.16-.12.33-.13.5l-.04.51c-.13.17-.22.38-.26.6l-.32,1.58c-.01.06-.02.13-.03.19l-.23.55s-.03.09-.05.13l-.31,1.12-.29.3c-.36.38-.49.92-.35,1.43l.05.2s.02.07.03.1l.44,1.23s.02.1.04.15v.05s-.04.01-.04.01c-.05,0-.1.01-.16.02l-1.57.32h-.01c-.12,0-.24.01-.35.04l-1.88.39c-.57.14-.99.59-1.11,1.13-.2-.05-.41-.06-.62-.02l-.28.05c-.25.04-.48.15-.68.31l-.23.04c-.33-.51-1-.8-1.61-.68l-.81.17h-1.35l-.75-.14c-.41-.16-.88-.13-1.27.08l-1.51.86c-.15.06-.3.15-.42.27l-.5.45-.61.45c-.38.28-.61.73-.61,1.21v6.97c0,.35.13.7.35.97l.6.66.09.6-.11.43s-.02.07-.02.1l-.43,1.29c-.06.16-.09.33-.09.51v.49s0,.07,0,.11l.05.74c.03.39.21.75.5,1.01l.47.62s.06.08.1.11l.22.25c-.06.03-.11.06-.16.1l-.68.34c-.05.02-.11.05-.16.08l-.86.45s-.09.03-.14.05l-1.45.69-.73.3-.75.25-1.71.37-.28.04s-.07.01-.1.02l-1.6.29-.24-.03c-.05,0-.11,0-.17,0l-1.2-.09c-.17-.01-.34,0-.51.04h-.23c-.14,0-.29.02-.42.06l-1.28.41c-.11.04-.22.09-.32.15l-.39.25c-.13.08-.24.18-.34.29l-.83.97-1.27,1.33c-.13.14-.24.3-.31.48l-.26.63-.36.74s-.04.09-.06.14l-.22.59c-.05.13-.08.27-.09.41l-.05.63-.36-.62c-.09-.16-.21-.3-.36-.41l-2.07-1.84-1.39-1.43-1.23-1.14-1.07-1.15-1.37-1.31-1.44-1.75c-.18-.22-.41-.38-.68-.47l-1.75-.59-1.55-.85-.93-.46-1.09-.68-1.07-.6-1.21-1.12-.88-.88-.67-.82c-.06-.08-.13-.15-.21-.21l-1.99-1.67-3.48-2.71-1.39-1.46c-.05-.06-.11-.11-.17-.17l-.61-.49s-.09-.07-.14-.1l-1.05-.67-.22-.23s-.06-.06-.09-.08l-1.03-1,.37-.32.48-.41,1.88-1.13,2-.38,2.19-.36.67-.14.93.15s0,0,0,0h0c.53.09,1.07-.12,1.41-.54s.42-1,.22-1.5l-.31-.76-.02-.03.94-.23s.09-.02.13-.04l2.9-1.04c.05-.02.11-.04.16-.07l2-1.06s.09-.05.13-.08l1.55-1.08s.09-.07.14-.11l.63-.52s.09-.07.13-.11l1.33-1.28s.05-.05.08-.08l.83-.93s.05-.06.08-.09l.82-1.14s.05-.08.08-.13l.58-1.07.6-.91c.1-.12.18-.26.25-.4l1.3-2.12,1.02-1.32.61-.63.4-.36.49-.36.77-.45c.06-.04.11-.07.17-.12l.5-.39c.05-.04.1-.09.15-.13l.26-.27.82-.54,2.23-1.15,4.81-1.7c.41-.15.74-.47.89-.88.09-.24.12-.49.08-.74.09-.03.18-.07.26-.12l1.1-.64s.06-.04.09-.06l1.16-.79c.06-.04.12-.09.18-.14l1.16-1.08s.05-.05.07-.08l1.6-1.72c.17-.18.28-.39.35-.62l.05-.2c.07-.26.07-.53,0-.78l-.1-.36.19-.09c.3-.13.54-.36.7-.64l.35-.66.67-.41c.45-.27.72-.76.72-1.28v-.29c0-.64-.4-1.2-1-1.42l-.28-.1c-.1-.04-.21-.06-.31-.07l-2.04-.25h0s0,0,0,0l-.88-.08s-.05-.01-.07-.02c0-.25-.07-.49-.19-.71l-.07-.14c-.08-.22-.27-.47-.45-.64l.87-.76c.05-.05.1-.1.15-.15l.2-.24.98-.62c.11-.07.21-.15.29-.24l.61-.62.26-.14c.1-.05.19-.12.27-.19l2.39-1.97c.25-.21.43-.49.5-.8l.17-.69s0-.04.01-.06c.02-.04.04-.09.05-.14.02-.04.03-.09.05-.13.04-.09.07-.17.09-.26l.26-.5c.22-.38.25-.85.1-1.26-.1-.26-.26-.48-.47-.64l.42-.89c.22-.46.19-1.01-.09-1.44-.27-.43-.75-.7-1.27-.7h0s0,0,0,0h-.31v-1.12c.49-.04.93-.31,1.18-.74l.06-.1c.13-.22.2-.52.2-.77l.05-2.45c.01-.55-.27-1.04-.71-1.31l.02-.76h.58s3.36.1,3.36.1h.44c.13,0,.26-.02.39-.05l12.03-3.13s.09-.03.13-.04l1.12-.38s.1-.03.15-.06l1.11-.49s.06-.03.09-.05l1.69-.98s.09-.06.13-.09l2.49-1.92s.01-.01.03-.02l1.99-1.09,1.49-.57s.07-.03.11-.04l.42-.18c.08-.03.16-.06.24-.1.04-.01.07-.03.11-.05.04-.02.08-.03.11-.05.04-.01.07-.03.11-.05.03-.01.06-.03.1-.04,0,0,0,0,0,0l1.03-.28c.16,0,.31-.03.46-.08l.44-.15c.1-.03.2-.08.3-.14.07-.01.15-.03.22-.05.04.34.18.66.43.9l.94.93c.26.26.61.41.97.43h0s0,0,0,0l.57.03.71.35c.06.03.13.06.19.08l.18.06.27.09s.09.03.13.04c.16.06.33.09.51.09h.28s.02,0,.03,0l.09.06c.11.07.23.11.35.15.16.05.32.09.49.08,0,0,.01,0,.02,0l.13.07s.07.04.1.05l.49.34c.07.07.15.12.24.17l1.78,1.22.25.23s.09.07.13.1l.28.2s.06.04.09.06l.78.67s.1.08.15.12l.63.47c.05.04.11.08.16.11l2.73,1.81s.06.04.09.06l.5.3.45.33s.06.04.09.06l.57.39c.09.12.2.23.33.32l2.86,2.06.16.14s.09.07.13.11l.53.37c.1.07.21.12.32.16l.05.04s.09.07.14.09l.67.42c.08.06.17.11.26.15l2.69,1.24,1.85.77.55.2s.04,0,.06.01c.1.03.2.06.31.07l5.01.3,1.88.05s.02,0,.02,0c0,0,0,0,0,0,0,0,0,0,0,0,.39.02.75-.14,1.02-.39h.42s.05,0,.08,0c.15,0,.29,0,.44-.05h.1c.15,0,.32-.03.47-.09l.41-.07.72-.04c.41,0,.78-.19,1.05-.48l3.83-.84c.02.11.05.21.09.31l.25.66-.07.49c-.04.27-.01.53.08.78l-.31.96c-.02.05-.03.11-.04.16l-.05.24s-.04.08-.05.13l-.11.3s-.03.09-.04.15l-.12.25s-.04.09-.06.13l-.2.32c-.29.47-.3,1.06-.03,1.54l.12.27s.04.09.05.13l.17.34c.25.52.83.85,1.41.85,0,0,0,0,.01,0,0,0,0,0,0,0,.41,0,.78-.19,1.05-.48l3.13-.71.15.6c.06.23.17.44.32.62l1.99,2.31c.11.13.24.23.38.32l.17.1s.08.02.12.04c.11.05.22.09.33.12.05.01.11.02.16.02.05,0,.1.02.15.02.11,0,.22-.01.33-.04l.22-.05c.25-.06.54-.23.73-.4.11-.1.21-.21.28-.34l1.92-3.3h0c.29.11.6.13.91.05h0s0,0,.01,0l.57-.15.61.32c.16.08.33.13.5.15.07.01.15,0,.22,0,.09,0,.18,0,.27,0h0s0,0,.01,0l.72-.15c.36-.07.68-.28.9-.57l.21-.28.36.07c.09.01.17.02.26.02h.44s0,0,.01,0h0s.08,0,.11,0c.03,0,.06,0,.09,0h0s.01,0,.02,0l.33-.05c.07-.01.14-.03.2-.04l.33-.1c.1-.03.19-.07.28-.11l.28-.15s.02-.01.03-.02c.16.06.34.09.52.09h1s0,0,0,0h0c.13,0,.26-.02.38-.05,0,0,0,0,0,0h0c.19,0,.38-.04.55-.12h.35s.22-.02.22-.02c.04.01.09.02.13.03l.51.07-.93.52c-.22.12-.41.3-.54.52l-.62,1.01-.72,1.03c-.13.19-.22.42-.25.65l-2.37,14.08-1.11,6.38s-.01.08-.02.13l-.12,1.25-.05,1.23s0,.09,0,.13l.06,1.3.11,1.18s0,.08.02.13l.22,1.23c0,.05.02.1.04.16l.33,1.13s.03.08.04.12l.96,2.34s.03.07.05.1l.55,1.08c.04.09.1.17.16.25l.77.98s.06.07.09.1l.94.99.77.74s.09.08.14.12l1.05.79s.07.05.11.07l1.66,1.03c.06.04.12.07.19.1l.89.39s.09.04.14.05l1.14.37,2.56.66h.01s0,0,0,0l.31.06,1.61.33s.09.02.13.02l1.33.15-.05.02h0ZM499.58,165.41l-.03.06-.21-.09c-.71-.29-1.53,0-1.89.68l-.52.97-.12.19s-.04.07-.06.1l-.3.54-.5-.44-1.04,1.08.94-1.17c-.08-.07-.17-.13-.26-.18-.11-.09-.25-.17-.39-.22-.03-.02-.07-.03-.1-.04-.04-.02-.07-.03-.11-.05-.04-.02-.08-.04-.12-.05-.04-.02-.08-.04-.13-.06-.01,0-.03-.01-.04-.02-.16-.09-.34-.15-.52-.18-.02,0-.04-.01-.07-.02l-3.82-.98c-.65-.16-1.34.12-1.67.71l-1.33,2.31s-.02.04-.03.06c-.01.02-.02.03-.03.05l-1.38,2.45s-.04.08-.06.12l-.06.14-.9-.2s-.08-.02-.13-.02l-2.21-.29c-.07,0-.13-.01-.2-.01h-.18s-1.46-.09-1.46-.09l-3.12-.29c-.51-.06-1.01.15-1.33.55-.18.22-.29.49-.32.77l-2.7-.6-.83-.2c-.08-.02-.16-.03-.24-.04l-3.37-.25s-.07,0-.11,0h-1.46l-1.97-.65c-.1-.03-.2-.06-.3-.07l-2.25-.25-1.49-.1c-.12,0-.24,0-.36.02l-.55.1s-.08.02-.13.03l-.55.15c-.08.02-.15.05-.22.08l-.77.34-.26.07s-.09.02-.13.04l-.46.16-1.39.29-1.98.5c-.39.11-.72.37-.92.72l-.05.1c-.12.22-.19.57-.19.83,0,.54.29,1.04.76,1.31l1.99,1.12-.85.91c-.08.09-.15.19-.21.29l-.5.73c-.07.03-.14.07-.2.11l-2.43,1.52c-.37.23-.62.61-.69,1.04-.02.13-.02.26,0,.38l-1.77.79c-.6.27-.95.89-.88,1.54l.06.49s.01.09.02.13l.11.54c.04.22.14.42.27.6l.18.25-1.84.56c-.64.19-1.07.82-1.07,1.49,0,.11.01.22.04.33l.17.75.09.5c0,.06.02.12.03.17l.02.06-6.66,5.83-2.21.84-1.66.69c-.14.06-.27.14-.38.23l-.22.11c-.67.34-.98,1.12-.74,1.83l.16.45.03.41-.03.17c-.06.39.03.8.27,1.12l2.98,4.12.68,1.73-1.27-1.3s-.09-.08-.13-.12l-12.48-10-2.5-2.26-1.8-1.92-.8-1-.56-1.16-2.05-4.81s-.04-.08-.05-.12l-.89-1.67c-.08-.14-.17-.27-.29-.38l-1.38-1.32c-.1-.1-.21-.18-.34-.24l-1.77-.93c-.08-.04-.15-.07-.23-.1l-1.92-.6c-.12-.03-.24-.05-.36-.06l-2.04-.1c-.13,0-.24,0-.36.03l-1.99.39c-.12.02-.24.06-.35.12l-1.86.88-6.58,3.65-1.18.59-1.19.41-1.84.21-1.98-.04-2.07-.23-1.79-.36-2.39-.61-.98-.32-.72-.32-1.51-.94-.93-.69-1.49-1.5-.64-.81-.46-.9-.88-2.16-.29-.99-.2-1.08-.1-1.04-.05-1.16.05-1.09.1-1.11,3.32-19.29.11-.82.57-.85.46-.75.62-.34,2.03-.77.85-.23,1.91-.03,1.19-.02,12.05,1.36s.02,0,.02,0h0c.15.02.3.01.44-.01l1.6-.3c.14-.02.27-.07.39-.13l5.72-2.84c.2-.06.39-.16.55-.29l.88-.74s.08-.07.12-.11l1.05-1.08c.19-.2.32-.44.39-.71l.27-1.18s.02-.1.03-.15l.23-1.82.09-1.38s.07.07.1.1l.11.1c.12.1.25.19.4.24.06.04.12.08.19.11.24.17.53.26.85.26h.06c.11.04.22.05.33.05l.5.04s0,0,0,0h0c.05,0,.11,0,.16,0s.11-.01.16-.02c.03,0,.06,0,.09,0,.12-.02.25-.05.36-.1l.45-.2c.22-.1.41-.25.56-.43l.28-.34c.07-.09.13-.18.18-.28l.17-.34c.04-.08.07-.16.09-.25l.11-.39c.04-.13.06-.27.06-.41v-.34c0-.12-.01-.24-.04-.36l-1-4.07c-.01-.05-.03-.11-.05-.17-.01-.04-.02-.09-.04-.13-.02-.1-.06-.21-.1-.31-.01-.04-.03-.09-.05-.13-.02-.05-.03-.1-.05-.15-.02-.06-.04-.11-.06-.17-.01-.04-.03-.08-.05-.12-.04-.13-.1-.25-.17-.36,0-.01-.01-.02-.02-.04-.04-.11-.09-.21-.15-.31-.02-.03-.04-.07-.06-.1-.02-.03-.03-.06-.05-.09-.02-.03-.04-.06-.05-.1-.02-.04-.04-.08-.06-.11-.05-.08-.1-.17-.16-.24l-2.05-3.17-.11-.25-.06-.26-.04-.35c.01-.05.02-.11.03-.16l.06-.28.51-.92c.11-.1.21-.21.28-.34l.55-.85s.05-.08.07-.12l1.11-1.92.18-.27c.06-.07.11-.15.16-.23l.44-.73.36-.66c.1-.11.18-.23.25-.37.02-.02.03-.05.05-.08l6.39-10.96.09-.14c.14-.11.27-.25.36-.41l.5-.83s.04-.08.06-.12l.76-1.29c.08-.14.14-.28.18-.43l.1-.17c.05-.08.09-.17.12-.26l3.19-5.4c.15-.11.28-.25.39-.42l3.95-6.62s.09-.1.13-.15h0s.07-.07.08-.07c.08-.07.15-.15.21-.24l.41-.41c.09-.09.17-.19.23-.3l1.49-2.56c.39-.13.71-.41.89-.78l.58-1.24s.06-.09.09-.13l.11-.2c.18-.32.23-.67.17-1.01l.8-1.36c.15-.14.28-.31.37-.5l.21-.37c.06-.09.11-.19.15-.29l.07-.1s.05-.07.07-.11l.05-.1c.14-.24.2-.52.19-.79.07-.1.13-.22.18-.34l1.14-1.99.28-.44c.05-.08.1-.17.13-.27l.11-.29s.02-.08.03-.12l1.78-3,2.79-1.11c.06-.02.12-.05.18-.08l2.48-1.36.34-.11.31-.08s.1-.02.15-.03l2.4-.09,1.57-.11.42-.05c.26.11.55.14.83.09l.7-.08c.08,0,.16-.02.24-.04l.79-.21c.55-.07,1.03-.43,1.23-.96l.12-.23c.1-.18.17-.38.19-.59l.05-.54c0-.05,0-.1,0-.15v-.37l.13-.37.53-.5.75-.29c.19-.06.36-.16.5-.29l.22-.2c.09-.08.17-.17.24-.27l.05-.08.49-.02,1.09.04s.08,0,.12,0h.94c.06,0,.11,0,.17,0l.44-.05c.1-.01.21-.03.31-.07l.44-.15c.07-.02.13-.05.19-.08l1.45-.72,4.16.68,1.93.81.81.55,1.24,1.59.56,1.33.59,1.79.38,3.4c.09.73.69,1.29,1.43,1.32h.29s-.59,1.74-.59,1.74c-.23.68.04,1.42.66,1.78l.3.18-.47.61c-.23.3-.33.67-.3,1.04l.04.42-.06.3-.29.46c-.27.41-.31.93-.12,1.39l.1.23-1.89.52-2.69.58-2.76.42c-.05,0-.1,0-.15.01l-1.04.15-1.53.3c-.07.01-.13.03-.2.06l-.53.16c-.05.01-.1.03-.15.05l-1.45.54s-.07.03-.11.05l-2.99,1.43c-.29.14-.53.37-.68.66l-.57.29c-.11.06-.22.13-.31.21l-.11.1c-.31.27-.49.66-.5,1.08-.01.41.15.81.44,1.1l.16.16c-.13.55.05,1.13.49,1.5l.99.84,1.09,1.32.25.38c.03.07.06.13.09.2l.3.53.23.47-.24.12c-.26.02-.52.12-.75.28-.5.37-.72,1-.56,1.59l-.16.13c-.34.28-.54.69-.55,1.13s.18.86.51,1.15l.27.24-.06.46c-.02.07-.04.14-.06.21l-.16.04c-.4.1-.74.35-.94.7s-.26.77-.15,1.17l.31,1.2c.02.09.05.18.1.27v.02c.02.08.04.16.07.24l.18.65c.01.05.03.11.05.16l.09.47s.02.09.03.13l.43,1.47.08.37c.01.14.04.27.09.4l.06.15c.04.12.1.23.17.33l.13.19c.04.09.09.17.14.25l.07.1c-.05.06-.1.13-.14.2l-.19.24-.42.29-.44.15-.36.08c-.46.1-.83.43-1.03.85l-1.95.25s-.07,0-.11.02l-.42.07h-.15c-.06,0-.13,0-.19.01l-.39.05c-.49.06-.91.36-1.14.79-.23.43-.23.95,0,1.39l.23.44-.15.33c-.13.23-.19.48-.19.74v.25c0,.11.01.22.04.33l.22.98c.06.27.19.51.38.71,0,.01,0,.03.01.04l.24.59c.26.6.89.97,1.53.91l1.46-.15.96.61s.1.06.15.08l.53.26.82.62c.16.12.34.21.54.26l.86.64s.06.05.09.07l.08.06c.09.14.2.26.33.37l2.4,1.99c.13.11.27.19.42.25l1.02.98,1.12,1.24.36.36,1.01,1.43c.08.12.18.22.29.32l.59.49.46.89s.04.08.06.11l.33.54c.14.23.35.42.59.55l.41.21.2.23s.02.02.03.03l-1.45,5.93-.11.39c-.22.77.21,1.57.96,1.83l.21.07-.31,1.37c-.02.07-.03.15-.03.22l-.11,2.91-.11.49-.41,1.08c-.15.39-.12.83.06,1.2.19.37.52.65.93.77l3.75,1.78c.38.18.81.19,1.19.04.1-.04.2-.09.29-.16l.62.72s.09.1.14.14l.17.15c.28.25.63.38,1,.38l1.54.6.83.3s.09.03.14.04l.39.1c.06.02.12.03.18.03l1.11.26.3.17.05.04s.06.05.09.07l.82.69,1.65,1.98c.08.09.17.18.27.25l1.79,1.37,1.29,1.42c.32.36.8.53,1.27.48.48-.05.9-.33,1.14-.75l.46-.64.77.75.6.76s.07.08.11.12l3.25,3.13c.06.06.13.11.2.16l.77.66s.07.06.11.08l.61.45.28.25s.1.08.15.12l1.5,1.09-.29.68Z" style="fill:#aaa8a8; stroke-width:0px;"/></svg>