<svg width="504" height="233" viewBox="0 0 504 233" fill="none" xmlns="http://www.w3.org/2000/svg">
<path name="Innere Stadt" fill-rule="evenodd" clip-rule="evenodd" d="M371.727 122.113L371.95 122.31V122.359L374.879 125.058L375.265 125.401L375.928 126.037L377.146 127.019L378.971 128.149L379.024 128.197L380.959 129.131L384.609 130.651L385.936 131.191L387.153 131.534L388.368 131.78L389.639 131.976L390.966 132.075L392.237 132.123L393.508 132.026L393.897 131.976L394.782 131.879L395.887 131.683L400.198 130.994L401.36 130.848L401.856 130.751H403.017L403.849 130.699L405.45 130.848L406.668 130.945L407.717 131.191L408.658 131.73L409.321 132.369L409.764 133.3L409.817 133.596L409.985 134.92L409.873 136.344V136.538L409.817 137.569L409.764 138.404L409.54 140.121L409.265 141.299L408.216 142.38L407.331 143.115H407.275L406.391 143.558L402.852 145.322L401.36 146.058L399.756 146.353L395.056 145.814L388.091 145.029L387.596 144.979H387.041L384.721 145.029H384.222L383.89 144.44L383.78 144.144L383.724 143.998L383.668 143.655L382.176 143.165L382.067 143.262L381.955 143.312L381.79 143.262L381.18 143.361L380.905 143.409L380.684 143.458H380.463L380.077 143.409L379.744 143.361V143.312H379.578L378.252 143.361V143.458H377.975L377.863 143.508H376.869V143.409H375.873L375.819 143.458L375.598 143.605L375.321 143.752L374.988 143.851L374.657 143.901H374.215L373.94 143.851L373.717 143.801L373.442 143.704V143.752L373.386 143.704L373.331 143.605L372.944 143.704L372.502 143.752L372.611 144.097L372.169 144.686L371.452 144.833L370.789 144.49L370.733 144.293V144.144L369.185 144.537L368.854 144.39L368.465 144.44L367.36 144.686H367.306L367.36 144.833L367.415 145.029L365.812 147.827L365.425 148.463L365.369 148.513L365.148 148.562L364.983 148.463L362.993 146.157L362.771 145.273L362.494 144.194L361.833 144.293L360.008 144.686L357.685 145.225H357.576L357.52 145.273H357.464L357.408 145.322L357.355 145.372L357.299 145.421L357.243 145.471L357.189 145.519V145.618H357.131L356.966 145.273L356.856 144.979L356.747 144.783L357.022 144.343L357.078 144.194L357.243 143.851L357.299 143.752V143.655L357.408 143.361L357.464 143.312L357.576 142.772L357.685 142.427L357.906 141.741L358.018 141.398L358.127 141.103L358.018 141.006L358.072 140.956V140.907L358.018 140.857H357.962V140.907L357.853 140.809L357.906 140.466L357.962 139.925L357.741 139.239L357.576 138.846L357.741 138.797L357.243 137.326V137.324L356.305 134.332L356.358 134.282L356.801 134.135L357.906 133.646L358.514 134.575H358.626L358.956 134.381L359.233 134.232L359.51 134.036L361.279 132.86L361.612 132.614L361.887 132.369L362.164 132.123L362.441 131.829L362.662 131.583L362.939 131.24L363.104 130.897L363.379 130.455L362.494 129.963L362.771 129.424L362.939 129.081L363.158 128.395L363.323 127.903L365.039 127.953L365.26 127.265L365.923 126.725L366.531 126.236L368.908 124.271L369.406 123.831L369.518 123.928L371.01 122.702L371.119 122.653L371.727 122.113Z" fill="#A6611A" stroke="#AAA8A8" stroke-width="3" stroke-miterlimit="10" stroke-linecap="round" stroke-linejoin="round"/>
<path d="M414.486 136.343L414.265 136.441L414.043 136.539L413.601 136.49H413.38L413.159 136.441H412.994V136.343H412.827L412.606 136.146L412.551 136.195L412.441 136.098L412.219 135.705V135.018L412.275 133.938L412.054 133.742V133.496L411.999 133.35L411.777 133.153L411.612 133.104L411.446 133.055L411.335 133.104L411.17 133.251V133.301L411.114 133.251L410.837 133.448L410.672 133.496L409.787 133.595L409.953 134.92L409.842 136.343V136.539L409.787 137.569L409.732 138.404L409.51 140.121L409.235 141.299L408.184 142.378L407.299 143.115H407.244L406.359 143.557L402.821 145.322L401.328 146.058L399.725 146.353L395.026 145.813L388.06 145.028L387.564 144.979H387.01L384.688 145.028H384.191L383.085 145.322L382.035 145.715L380.873 146.157L379.823 146.746L379.159 147.825L378.441 148.856L378.386 149.248L378.275 150.082L377.557 154.4L377.004 157.493L376.064 162.988L375.898 163.921L375.4 166.914L375.18 168.14L374.958 169.367L374.848 170.545L374.793 171.772L374.848 172.998L374.958 174.176L375.18 175.403L375.511 176.531L375.953 177.66L376.451 178.837L377.004 179.917L377.777 180.899L378.662 181.831L379.436 182.567L380.487 183.352L381.592 184.039L382.145 184.383L383.03 184.775L384.08 185.118L386.568 185.757L388.503 186.149L390.714 186.394L392.87 186.444L394.971 186.199L396.409 185.708L397.68 185.07L404.314 181.389L406.083 180.555L408.073 180.162L410.119 180.26L410.948 180.506L411.999 180.85L413.767 181.782L415.149 183.106L416.033 184.775L418.08 189.584L418.743 190.958L419.682 192.136L421.563 194.147L424.106 196.454L436.655 206.513L440.414 210.341L441.077 209.899L441.464 209.604L441.741 209.408L440.691 206.954L439.64 204.305L436.544 200.036L436.599 199.692L436.544 198.907L436.323 198.27L436.709 198.073L436.82 197.975L438.479 197.288L440.304 196.601L440.801 196.405H440.857L444.56 193.166L448.43 189.78V189.683L448.375 189.437L448.209 188.799L448.154 188.406L448.098 188.161L447.933 187.425V187.376L449.425 186.934L451.084 186.394L451.803 186.199L451.25 185.413L451.14 185.266L450.697 184.676L450.365 184.235L450.255 183.695L450.199 183.205L450.42 183.106L451.747 182.518L452.079 182.371L452.3 182.272L452.742 182.076L452.798 182.027H452.853L453.405 181.733L453.517 181.684L452.853 180.899L455.285 179.377H455.451L455.561 179.525L455.617 179.328L455.727 179.132L456.391 178.2L456.501 178.003L457.331 177.12L458.271 176.089L458.436 175.943L458.657 175.697L457.441 175.01L455.009 173.636V173.538L455.064 173.44L455.783 173.244L456.999 172.949L458.436 172.655L458.99 172.459L459.376 172.36L460.261 171.968L460.814 171.821L461.367 171.723L462.859 171.821L464.241 171.968L465.015 172.066L466.729 172.655L467.282 172.802H468.94L472.312 173.048L473.141 173.244L475.022 173.636L476.57 174.029L476.956 174.078L477.62 174.225L478.228 174.372L478.172 174.176L478.007 173.538L477.841 173.048L477.675 172.557L479.444 172.753L480.274 172.802L480.827 172.851L482.319 172.949H482.595L484.807 173.244L486.797 173.685H486.963L487.184 173.096L487.349 172.704L487.46 172.459L487.792 171.87L488.842 170.005L488.897 169.955V169.906L490.225 167.6L494.04 168.582L494.094 168.631H494.26L494.315 168.68H494.37L494.426 168.729H494.482L494.537 168.778H494.593L494.647 168.827H494.703L494.758 168.876H494.812L494.868 168.925H494.924L495.09 169.073H495.145L495.2 169.121L495.255 169.17L495.31 169.22L495.365 169.269L495.422 169.318L495.753 169.612V169.662L495.808 169.71L496.97 171.134L497.522 170.152L498.351 168.68L498.517 168.435L499.07 167.405L499.789 167.699L500.508 168.042L501.226 166.717L501.28 166.57L501.558 165.931L502 165V164.852L501.005 164.116L500.231 163.528L499.512 163.037L499.18 162.742L498.517 162.252L497.799 161.614L497.577 161.467L496.527 160.485L495.919 159.897L495.145 159.161L494.758 158.768L494.37 158.375L493.707 157.542L492.657 156.51L492.159 155.922L491.773 155.333L490.114 157.59L490.059 157.688L488.677 156.168L487.349 155.137L486.742 154.695L485.47 153.174L485.028 152.634L484.419 152.095L484.033 151.8L483.867 151.652L483.259 151.31L482.153 151.015L481.766 150.966L481.379 150.868L480.549 150.573L479.609 150.181L479.389 150.082L478.837 149.886H478.504L478.339 149.739L477.62 148.905L477.399 148.512L476.459 147.482L476.348 147.236L475.741 148.757L472.036 146.991L471.926 146.942L471.76 146.893L472.202 145.715L472.368 144.979L472.423 142.771L472.479 141.986L473.086 139.287H472.976L472.866 139.238L472.755 139.189L471.594 138.796L471.704 138.404L472.368 135.656L473.364 131.632L473.418 131.436L472.811 131.043L472.423 130.602L471.76 130.258L471.428 129.719L470.986 128.836L470.764 128.492L469.991 127.853L469.493 127.118L468.885 126.283L468.443 125.842L467.337 124.615L465.901 123.241L465.789 123.29L464.518 122.211L463.357 121.279V121.131L462.859 120.788L462.195 120.248L461.809 119.954L461.422 119.855L460.648 119.266L460.427 119.12L459.819 118.825L458.657 118.089L458.436 117.941L456.447 118.138L456.28 117.745L456.225 117.598L456.17 117.401V117.304L456.114 117.156H456.004L455.894 117.058L455.672 116.076V115.831L455.838 115.537L456.004 115.046L456.336 114.948L456.17 114.654L455.949 114.261L455.617 113.623L456.004 113.574H456.28L456.833 113.476L457.331 113.427L457.662 113.378L458.105 113.329L458.547 113.28L459.045 113.182H459.156L459.376 113.133H459.763L459.819 113.084L459.985 112.397V112.347L460.427 112.25L461.145 112.004L461.919 111.464L462.306 110.973L462.362 110.876L462.417 110.827L462.472 110.777L462.583 110.532L462.804 110.139L462.748 109.894L462.693 109.453L462.638 109.354L462.362 108.962V108.913L462.086 108.52L462.03 108.373V108.324L461.919 107.784L461.698 106.999L461.588 106.655L461.477 106.263L461.367 105.674L461.311 105.527L461.145 104.889L461.09 104.742L461.035 104.447L460.98 104.398L460.869 103.908L460.648 103.122L461.256 102.975L461.477 102.926L461.643 102.877L461.698 102.73L461.919 101.994V101.945L461.975 101.846L462.086 101.061V100.326L461.919 100.129L461.753 99.9822L461.588 99.8347L461.311 99.5897L461.975 99.049L462.14 99.0006L462.195 99.049L462.306 99.0982L462.583 99.0006L462.362 98.5589L462.086 98.1664L461.975 97.9207L462.03 97.9706H462.086L462.804 97.6265L464.02 97.0374L463.743 96.3507L463.578 96.0074L463.412 95.6149L463.191 95.1732L462.859 94.5842L462.804 94.4374L462.417 93.8483L461.753 93.0633L461.2 92.3759L460.095 91.4435L460.316 90.6585L459.985 90.3152L459.542 89.8735L459.652 89.7752L460.703 89.2353L460.814 88.9903L460.869 88.8428L462.195 88.2053L462.528 88.0578L463.025 87.8121L463.854 87.4196L464.629 87.1254L465.291 86.8803L465.678 86.782L465.955 86.6837L466.673 86.5363L467.171 86.4387L467.448 86.3896L468.443 86.2421H468.498L469.493 86.0954L471.373 85.8005L472.312 85.6039L473.197 85.408L474.136 85.2114L475.022 84.9663L475.961 84.7206L477.73 84.1322L477.62 83.8872V83.838L477.509 83.5922L477.399 83.3472L477.012 82.4148L477.454 81.7274L477.62 80.9424L477.565 80.3049L479.057 78.3417L477.288 77.3117L477.896 75.5451L478.504 73.7294L477.399 73.6311L476.238 73.5819L476.017 71.7662L475.851 70.0488L475.188 68.0372L474.524 66.4672L473.861 65.6324L473.031 64.5532L472.479 64.1607L471.871 63.7682L469.659 62.8358L467.226 62.4433L464.849 62.0508L462.97 62.9832L462.528 63.13L462.086 63.1791H461.145L460.538 63.13H459.929L458.713 63.1791L458.436 63.474L458.16 63.8665L457.938 64.0624L457.22 64.3081L456.778 64.5532L455.894 65.3873L455.783 65.6324L455.672 65.8781L455.507 66.4173V67.0071L455.451 67.5464L455.285 67.8406L455.23 67.988H455.175L454.235 68.2331L453.682 68.2822L453.405 68.3321L453.074 68.1846L452.245 68.2822L450.752 68.3812L448.209 68.4788L448.043 68.528L447.767 68.5771L447.491 68.6747L447.048 68.8222L444.449 70.2454L441.796 71.2754L441.133 71.6195L438.922 75.3485H438.976L438.866 75.6434L438.59 76.085L437.595 77.8025L437.484 77.9983L437.374 78.1949L437.319 78.3417L437.152 78.5383L437.097 78.6857L436.986 78.8816H437.042L436.931 79.225L437.042 79.2741L436.986 79.3724L436.82 79.6182L436.765 79.7649L436.599 80.0107L436.544 80.1083L436.434 80.3533L436.379 80.3049L434.83 82.954L434.996 83.0032L435.162 83.1022L435.051 83.2981L434.996 83.3472L434.775 83.838L434.332 84.7697L434.001 84.5738L432.011 88.0087L431.624 88.4012L431.458 88.5486V88.5978L431.403 88.6469L431.292 88.7445L431.236 88.7937L431.182 88.8428V88.892L431.016 89.0394V89.0886L427.644 94.7808L427.035 95.7616L426.925 95.7132L423.829 100.963L423.387 101.7L423.331 101.846L422.944 102.485L423.055 102.435L422.391 103.515L422.225 103.859L421.728 104.693H421.617L421.286 105.233L419.296 108.618L418.522 109.992L417.969 110.876L417.085 112.446L414.873 116.224L414.818 116.273L414.762 116.421H414.707L414.652 116.518L414.431 116.96L414.209 117.353L413.989 117.696L413.767 118.089L413.601 118.285L413.491 118.481L413.436 118.58L412.33 120.493L412.054 120.886L411.722 121.425L411.666 121.376L411.003 122.505L410.782 122.996L410.672 123.487V123.584L410.617 123.634V124.026L410.672 124.517L410.782 125.008L411.003 125.498L413.159 128.836L413.214 128.884V128.933L413.27 128.982V129.032L413.325 129.08V129.129L413.38 129.178V129.228L413.436 129.277V129.326L413.491 129.375V129.473L413.547 129.522V129.571L413.601 129.621V129.67L413.656 129.719V129.817L413.712 129.866V129.963L413.767 130.013V130.111L413.823 130.16V130.258L413.878 130.307V130.405L413.933 130.455V130.602L413.989 130.651V130.798L414.043 130.847L415.038 134.92V135.263L414.928 135.656L414.762 136L414.486 136.343Z" name="Kirchenfeld-Schosshalde" fill="#FEE0D2" stroke="#AAA8A8" stroke-width="3" stroke-miterlimit="10" stroke-linecap="round" stroke-linejoin="round"/>
<path d="M371.211 93.1119L368.115 104.889L367.673 106.606L366.899 109.404L366.622 110.483L366.567 111.415L366.512 111.513L366.567 112.593L366.678 113.673L366.954 114.752L367.286 115.832L367.728 116.862L368.227 117.844L369.11 119.266L370.216 120.641L371.709 122.112L371.93 122.309V122.358L374.86 125.057L375.247 125.4L375.91 126.038L377.127 127.019L378.951 128.148L379.006 128.197L380.941 129.129L384.59 130.65L385.917 131.191L387.133 131.534L388.349 131.779L389.621 131.976L390.947 132.074L392.219 132.123L393.49 132.025L393.877 131.976L394.762 131.877L395.867 131.682L400.18 130.994L401.34 130.847L401.838 130.749H402.999L403.829 130.699L405.431 130.847L406.648 130.945L407.698 131.191L408.638 131.73L409.302 132.368L409.744 133.301L409.799 133.595L410.684 133.497L410.85 133.447L411.127 133.252L411.181 133.301V133.252L411.347 133.104L411.457 133.055L411.624 133.104L411.789 133.153L412.011 133.349L412.066 133.497V133.742L412.287 133.938L412.232 135.018V135.705L412.452 136.098L412.564 136.196L412.618 136.146L412.84 136.343H413.006V136.441H413.171L413.393 136.49H413.614L414.056 136.539L414.277 136.441L414.499 136.343L414.775 135.999L414.941 135.656L415.051 135.264V134.92L414.056 130.847L414.001 130.798V130.65L413.946 130.602V130.454L413.89 130.406V130.308L413.835 130.258V130.16L413.78 130.111V130.013L413.724 129.964V129.865L413.669 129.816V129.718L413.614 129.669V129.62L413.559 129.571V129.523L413.504 129.473V129.374L413.448 129.326V129.277L413.393 129.228V129.178L413.337 129.129V129.081L413.282 129.031V128.982L413.227 128.933V128.884L413.171 128.835L411.015 125.499L410.794 125.008L410.684 124.517L410.629 124.026V123.634L410.684 123.585V123.486L410.794 122.995L411.015 122.505L411.679 121.376L411.734 121.425L412.066 120.886L412.342 120.493L413.448 118.579L413.504 118.481L413.614 118.286L413.78 118.089L414.001 117.696L414.222 117.352L414.443 116.96L414.664 116.518L414.719 116.421H414.775L414.83 116.273L414.885 116.224L417.097 112.446L417.981 110.875L418.534 109.992L419.308 108.618L421.298 105.232L421.63 104.692H421.74L422.238 103.858L422.404 103.515L423.068 102.435L422.957 102.484L423.344 101.846L423.399 101.7L423.841 100.963L426.937 95.7126L427.048 95.7618L427.655 94.7802L431.028 89.088V89.0396L431.083 88.9897L431.138 88.9406L431.194 88.8921V88.843L431.36 88.6955L431.415 88.6471L431.47 88.5972V88.5481L431.636 88.4013L432.023 88.0088L434.013 84.574L434.345 84.7699L434.788 83.8382L435.009 83.3474L435.064 83.2982L435.175 83.1016L435.009 83.0033L434.842 82.9549L436.39 80.305L436.446 80.3535L436.557 80.1084L436.612 80.0101L436.777 79.7651L436.833 79.6176L436.999 79.3726L437.054 79.2743L436.943 79.2251L437.054 78.8818H436.999L437.109 78.6852L437.164 78.5384L437.33 78.3418L437.385 78.1944L437.496 77.9985L437.606 77.8019L438.601 76.0845L438.878 75.6428L438.989 75.3487H438.933L439.376 73.4838H439.154L439.099 73.3855L439.321 71.178L439.376 70.8339L439.486 70.4906L439.596 70.2947L439.652 70.1472L439.819 69.8531L440.094 69.4114L440.316 69.0189L440.536 68.724H440.481L440.205 68.5773L440.316 68.1848L440.426 67.7916L440.481 67.3991L440.371 66.6141L440.261 66.2708L440.039 65.8783L439.984 65.8291L439.819 65.5349L439.431 65.0441L439.376 64.995L439.266 64.8475L438.989 64.455L438.768 64.1117L438.657 63.8659V63.7684L438.601 63.3752L438.491 62.296L438.381 59.5478L438.27 58.6645L438.104 57.8311L437.772 57.9287L437.662 57.7321L437.385 57.143L437.109 56.7512L437.054 56.6529L436.833 56.4079L436.667 56.2113L436.224 55.8188L435.838 55.4263L435.672 55.2297L435.506 55.1321L435.34 54.8864L435.119 54.5922L434.953 54.298L434.842 53.9539L434.732 53.7089L434.677 53.4147L434.622 53.2672V53.0706L434.566 52.7764L434.511 51.7949L434.4 50.7157L434.29 49.93L433.958 48.9491L433.57 48.2617L432.908 48.5566L432.244 48.9L432.023 48.9976L431.913 49.0467L431.083 49.3908L430.862 51.3041L429.536 53.758L424.449 58.4195L422.901 60.6277L421.63 62.4919L416.82 65.9766L412.785 67.5957L408.307 67.3015L398.411 63.1793L396.143 63.081L394.872 63.0318L392.385 63.5226L389.731 64.2584L387.188 65.3875L385.032 67.0066L383.65 68.5773L381.77 71.8155L380.499 74.0237L378.73 77.2135L378.011 78.8326L376.96 80.5501L376.297 81.5808L375.523 82.66L374.362 84.2798L373.257 86.3399L372.372 88.6471L371.266 93.0136L371.211 93.1119Z" name="Breitenrain-Lorraine" fill="#FEE0D2" stroke="#AAA8A8" stroke-width="3" stroke-miterlimit="10" stroke-linecap="round" stroke-linejoin="round"/>
<path d="M118.943 143.949H118.334L117.948 143.802L117.616 143.557L117.119 143.409L116.289 143.606L116.068 143.655L115.847 143.704L115.294 143.949L114.852 143.999L114.52 143.949L114.078 143.999L113.912 143.949H113.248L113.028 143.851H112.585L112.419 143.9L111.756 143.802L111.424 143.9L111.258 143.802L110.927 143.557H110.595L110.318 143.36L110.208 143.164H109.876L109.379 143.115L109.213 143.214H108.494L108.107 143.164L107.721 143.36L107.223 143.508L106.725 143.851L106.283 143.949L106.172 143.999L105.951 144.048L105.011 144.096H104.956L104.845 144.194L104.238 144.145L103.906 144.096L103.574 143.9L103.463 143.949L103.077 143.851L101.97 143.655H101.639L101.197 143.508L100.92 143.557L100.699 143.655L100.312 143.262L99.87 143.36H99.3725L98.875 143.262H98.8196V143.508L99.0403 143.851L98.322 143.802L97.7691 143.851H97.327L96.6633 143.9L96.3873 143.851L95.9997 143.9L95.3368 143.802L94.3971 143.459L94.231 143.409V143.311L94.1202 143.017L93.9549 142.821V142.772L93.6781 142.526L93.1805 142.134L92.0747 142.33L91.5218 142.428H90.9143L90.6928 142.379L90.0845 142.526L89.0341 142.575L88.4266 142.624L87.7622 142.674L87.4869 142.723L86.7679 142.821L86.5464 142.869L86.1042 143.017L85.7174 143.262L85.2199 143.557L84.6116 143.999L84.1141 144.391L83.4504 144.93L83.119 145.176L83.009 145.274L82.7322 145.471L82.5107 145.715L82.2892 145.961H82.3446L82.1793 146.157L81.9578 146.305L81.1288 146.747L81.0735 146.943L81.2941 147.63V147.728L81.1288 148.071L80.9073 148.66L80.852 148.709L80.6867 148.954L79.7469 149.837L79.6916 149.887L79.5808 149.985L79.5255 150.083L78.9726 150.868L78.8064 151.015L78.5858 151.212L78.5304 151.261L78.4196 151.457L78.199 151.653L78.1436 151.702L78.0328 151.898L77.9775 151.997H77.9221V152.144L77.5907 152.536L77.5353 152.635L77.4799 152.831L77.3692 152.88L77.2592 152.929H77.0378L75.4898 153.126L75.0476 153.175L74.1633 153.272L72.1731 153.371H72.1177L71.8409 153.42L71.3433 153.518L71.178 153.567H70.9565L70.5697 153.665L68.9664 154.009L68.082 154.205L67.363 154.401L67.1977 154.45H66.7002L66.1465 154.5L65.7043 154.646L65.2629 154.745L64.8199 154.843L64.3778 154.99L63.8802 155.088L63.6596 155.137L63.272 155.235L63.0505 155.285L62.5529 155.334L62.2215 155.383L61.6686 155.431L61.4479 155.383L61.2818 155.431L61.1157 155.481L61.0057 155.53L60.8396 155.579H60.6735L60.5082 155.628H59.7892L59.7338 155.677L59.4578 155.775L59.2916 155.825L59.1255 155.873L58.9602 155.922L58.518 156.07H58.2966L58.1858 156.119L57.9651 156.168L57.8544 156.217H57.799L57.6883 156.168L57.4122 156.119L57.1907 156.168H56.6378L56.3064 156.07L55.5328 155.922L55.3667 155.873L55.0353 155.775L54.9245 155.726H54.8138L54.703 155.677L54.5923 155.579L54.3162 155.53L54.2055 155.481H54.1501L54.0402 155.53L53.8187 155.481L53.708 155.431H53.5972L53.5426 155.481H53.3212L53.2658 155.431H53.0997L52.879 155.579L50.1698 157.395L50.1144 157.493L47.2399 157.836L46.7424 157.885H46.5771L45.8573 157.934L45.6919 157.983H45.5266L44.6969 158.081L44.2547 158.13L44.0332 158.18L43.6464 158.229L43.4803 158.278L43.0935 158.375H42.9282L42.8174 158.425L42.4852 158.523H42.3745L42.2092 158.572H41.6009L41.4348 158.621L41.2695 158.572H40.7719L40.6058 158.523L40.4397 158.572H40.3843L39.3892 159.063L38.3388 159.602L37.0676 160.192L36.7916 160.339L35.6304 160.928L35.0221 161.222L33.0873 162.203V163.283H32.9212L32.7559 163.332L32.4237 163.381L32.0369 163.528V164.018L32.2584 164.558L31.5393 165.197L31.8708 165.442L31.9261 165.687L31.7608 165.982L31.6501 166.08L31.1525 166.227L30.655 166.374L30.5443 166.423L30.1021 166.669L29.4938 167.012L29.2723 167.111L28.831 167.405L28.278 168.042L27.559 168.73L27.4483 169.024V169.367L27.6136 170.055L27.7251 170.938L27.669 171.821V172.165L27.7251 172.508L27.669 173.489L27.559 174.079L27.2276 174.716L26.7854 175.501L27.1168 176.777L27.0615 178.103L27.2276 178.544L28.278 179.378L28.6648 179.722L28.831 180.556L28.9963 181.144L29.2723 181.439L29.5492 181.733L29.7707 182.224L29.8806 182.568L29.9913 182.764L30.2128 183.254L30.3236 183.843L30.5996 184.531L30.8211 185.217L29.936 185.561L29.0516 185.904L29.107 186.051L30.1021 187.425L30.7104 188.309L31.1525 188.849L31.5393 190.075L31.9261 191.155L31.7608 191.645L31.5393 191.94L31.2633 192.529L30.8757 192.97L30.0467 193.019L29.7707 193.363L28.9963 193.854L28.6095 193.952L27.5036 194.197L27.0061 194.246L26.5639 194.492L26.1218 194.835L25.6796 195.424L25.1259 195.963L24.6845 196.16L23.9101 196.651L23.1911 196.994L22.8605 197.141L22.4175 197.632L22.0861 198.319L21.5885 199.055L21.3671 199.398L20.5935 200.232L20.2612 200.429L19.543 200.527V200.576L19.3215 200.674L19.2108 200.871L19.0455 201.018H18.6579L18.3264 201.116L17.7182 201.263L15.9495 201.607L14.7883 201.901L13.7378 202.294L13.4618 202.392L12.7428 203.03L12.1353 203.324L11.6377 203.716L10.4765 205.14L10.3104 205.287L9.15004 206.563L8.15496 207.74L7.98884 207.888L7.71199 208.084L7.15908 208.525L6.44006 209.262L5.83257 210.047L5.33502 210.734L4.45069 211.519L3.62093 212.598L3.17875 213.285L2.73659 213.923L2.40436 214.463L2.1291 214.954L1.96219 215.297L1.79688 215.69V215.984L2.01757 216.524L2.18368 216.818L3.45481 218.487L9.25998 218.585H10.3658L10.8633 218.487L16.2255 218.928L22.0861 219.615L28.7202 220.302H29.936L32.9212 220.597L34.3585 220.401L36.3486 220.45L41.3794 219.959L45.4151 218.977L46.3556 218.683L48.5672 217.996L51.2756 217.211L52.2153 216.818L53.708 216.033L55.6981 215.003L57.9651 213.825L59.0156 213.334L60.7289 212.893L62.9405 212.255L65.0968 211.323L65.815 211.225H67.3076L68.6895 211.568L68.7457 211.519L69.7962 211.568L71.0673 211.519L72.7814 211.225L73.4996 211.176H73.7765L74.0525 211.225L74.8261 211.273L75.7666 211.225L76.5402 211.176L77.5353 211.372V211.568L77.4799 211.96L78.6965 212.794L80.023 212.942L80.4098 213.334L81.0735 213.973L81.571 214.414L81.6817 214.365L82.1239 215.101L82.2892 215.444L82.4553 215.739L82.8421 216.279L84.1694 231L93.512 230.362L103.629 229.675L113.746 228.988L112.309 213.334L116.842 212.942H116.897L117.781 212.843L124.14 212.304L127.733 211.519L128.341 211.469L130.22 211.323L131.382 211.273H132.875L135.252 211.077L137.573 210.341L139.176 210.047L141.056 209.359L142.881 208.967L143.876 208.82L145.202 208.624L145.645 208.574H146.75L147.69 208.624H148.575L150.068 208.525L150.012 208.231V206.023L150.344 206.072H150.565L151.781 205.974L152.998 205.876L154.324 205.63L155.485 205.336L157.199 205.042L157.973 204.943L158.802 204.845L159.133 204.796L160.35 204.894H161.29L162.506 204.943H163.667L164.773 204.894L166.487 204.796L166.431 203.962L166.376 202.294L166.266 201.46L166.1 200.331L166.653 200.135L167.15 200.037L168.754 199.84L170.191 199.693L171.352 199.546L173.065 199.153L173.397 199.055L174.227 198.81L175.387 198.662H175.885L177.267 198.466L178.207 198.319L179.589 197.877L180.915 197.436L180.971 197.387H181.026L182.85 196.405L185.117 194.884L185.725 194.394L186.168 194.001L186.001 192.922L185.891 192.824L184.62 191.253L183.569 190.026L183.901 189.634L185.172 188.064L186.058 188.358L187.825 188.75L188.489 188.995L189.319 189.486L189.761 189.977L191.751 188.898V188.603L194.184 188.064L196.118 187.622L197.666 187.327H197.832L197.888 187.376L197.999 187.866L198.053 187.671L198.219 187.573L199.601 187.425L200.486 187.327L200.873 187.278L201.204 187.229L202.089 187.082V190.271L202.034 191.204H202.089L203.471 190.959L204.798 190.762L206.457 190.664L207.617 190.615L208.336 190.566L209.663 190.468H209.718V190.37L209.884 189.78L210.272 188.26L210.492 187.475L210.769 187.524L211.654 187.573L212.207 187.622L213.312 187.671L213.975 187.72L214.141 187.818L214.583 188.064L214.97 188.211H215.689L216.352 188.161L216.96 188.064L217.182 188.309L216.794 189.928L216.74 190.222L216.684 190.468V190.517L216.131 192.578V192.676L216.021 193.118V193.216L216.74 194.688L215.745 195.129H215.634L214.86 196.16L216.518 197.976L216.96 198.466L217.071 198.564L217.182 198.761L217.347 198.859L217.403 198.957L217.679 199.252L218.287 199.791L218.453 199.987L218.564 200.086L218.895 200.527L218.951 200.576L219.006 200.674V201.116L219.227 201.411L219.393 201.656L219.559 201.951L219.725 202.097L219.78 202.245L219.946 202.49L220.001 202.637L220.056 203.177V203.619L220.112 203.864L220.223 204.06L220.443 204.404L220.554 204.551L221.107 203.815L221.494 203.373L221.825 202.981L221.936 202.834L222.433 202.441L222.931 202.097L223.595 201.705L224.479 201.116L224.7 200.919L224.756 200.871L224.977 200.723L225.805 201.509L226.303 201.165L226.967 200.674L227.906 200.135L229.178 199.006L229.288 198.908L230.007 198.319L230.395 197.927L230.339 197.583L230.284 196.651L230.616 196.258L231.721 195.768L232.164 195.424L233.656 194.344L234.651 193.461L235.702 192.578L237.913 191.253L240.235 190.811L240.566 190.762L241.064 190.664L242.336 190.468L243.275 190.271L244.491 190.468L244.215 189.78L243.939 189.192L243.442 188.112L244.381 187.866L245.321 187.622L246.15 187.425L246.869 187.18L247.643 186.886L248.472 186.591L249.025 186.395L249.523 186.15L250.075 185.856L250.959 185.365L252.508 184.285L252.84 183.991L253.226 183.696L253.89 183.058L254.554 182.42L255.383 181.488L255.825 180.899L256.157 180.408L256.764 179.279L257.483 178.2H257.539V178.103L258.479 176.532L258.976 175.747L259.529 175.06L260.082 174.324L260.8 173.588L261.298 173.146L261.906 172.704L262.735 172.214L263.232 171.821L263.565 171.478L264.007 171.134L264.67 170.741L265.39 170.349L266.439 169.809L267.047 169.515L267.766 169.27L268.54 168.975L269.204 168.779L270.143 168.435L270.696 168.239L271.913 167.797L271.305 166.669L271.913 166.423L272.908 166.178L274.013 165.54L275.174 164.755L276.335 163.675L277.938 161.958L277.993 161.762L277.828 161.124V160.78L278.104 160.094L278.326 159.75L278.602 159.701L278.933 159.554L279.099 159.259L279.265 158.916L279.321 158.719L279.265 158.67L280.481 157.934V157.64L280.205 157.542L278.215 157.296L277.109 157.198H277.054L276.998 157.15H276.445L276.391 157.1H275.561L275.616 156.855L275.892 155.726L275.783 155.53L275.727 155.383L275.672 155.334L274.787 155.775L274.29 154.892V154.794L274.179 154.745L273.958 154.548L274.677 153.96L274.897 153.763L276.003 152.831L276.556 152.341L276.888 151.948L277.386 151.605L278.104 151.163L278.436 150.819L278.879 150.377L279.321 150.132L279.486 149.985L279.598 149.887L279.763 149.739L280.979 148.758L281.753 148.12L281.919 147.433V147.335L281.974 147.286V147.188L282.029 147.139V147.041L282.084 146.992V146.893L282.14 146.844V146.747L282.306 146.354L282.527 145.961L282.251 145.863L281.864 144.881L281.808 144.784L282.527 143.262H281.808L280.703 143.164V139.091L281.808 139.14H282.084L282.14 139.042V138.993L282.195 136.54L281.532 136.491L281.477 135.509L281.532 133.645H280.537L280.481 133.399L279.928 133.154L279.431 132.86L278.988 132.467V132.712H277.716L277.496 132.86L275.892 132.811L273.295 132.614L273.073 132.565L269.923 132.32L266.55 132.026L265.832 132.222V132.27L265.665 132.369L265.555 132.32L265.39 132.172L263.675 130.848L263.067 130.406L263.509 129.621L261.795 128.836L261.575 129.228L258.092 126.579L253.503 123.585L251.126 124.42L249.467 125.008L247.477 125.744L245.432 126.48L245.045 125.94L244.989 125.891L244.879 125.794V125.744L244.824 125.695V125.646L244.768 125.597V125.548L244.713 125.499V125.401L244.657 125.352V125.205L243.331 123.585H243.275L243.22 123.536H243.165L242.999 123.389L242.944 123.34L242.833 123.241V123.193L242.225 122.407L241.838 121.721L241.285 120.837L240.732 118.383V116.667L241.506 116.568L241.285 116.225L241.175 115.882L240.843 114.949L240.954 114.9L240.843 114.507L240.788 114.115L240.732 113.673L240.511 112.79L240.456 112.593L240.18 111.318L239.903 110.434V109.845L239.627 109.06L239.24 108.275L239.018 107.637L238.632 106.656L238.576 106.607V106.509L238.521 106.46V106.362L238.466 106.312V106.214L238.411 106.165V106.067L238.355 106.018V105.97L238.3 105.92V105.821L238.245 105.773V105.675L237.747 104.693L237.194 103.761V103.712L237.139 103.662V103.613L237.084 103.565V103.516L237.028 103.466V103.417L236.918 103.32V103.27L236.863 103.221V103.172L236.752 103.074V103.025L236.697 102.976V102.927L236.641 102.877L236.033 101.995V101.946L235.923 101.847V101.798L235.812 101.7V101.651L235.757 101.602L235.702 101.553V101.504L235.646 101.455V101.406L235.536 101.307V101.258L235.481 101.209L235.426 101.16V101.111L234.762 100.228L234.154 99.3933L233.933 99.1975L233.325 98.5101L232.661 97.8234L232.053 97.1851L231.998 97.1367L231.279 96.4493L230.506 95.7626L229.123 94.1919L228.57 93.407L228.128 92.7687L227.243 91.7387L226.967 91.5912L226.248 90.6096L225.861 90.168L225.475 89.6772L225.087 89.2363L224.977 88.9912L225.087 88.7455L225.308 88.4513L229.068 84.1332L229.344 83.8383L229.62 83.6424L229.842 83.4949L230.173 83.3475L230.118 82.7591L229.62 82.5133L229.178 82.2683L228.736 81.925L228.46 81.6301L228.239 81.3359L228.017 80.9925L227.906 80.5017L227.851 80.256L227.686 80.0601L227.851 79.9618L227.63 79.7652V79.6184L226.745 78.5877L222.876 78.8819L216.629 81.4342L216.463 81.5318L212.372 91.5912L211.211 94.4377L210.548 94.8302L202.532 99.6882L193.797 96.7926L192.691 98.1176L192.47 98.3633L189.65 101.602L190.59 102.092L191.254 102.534L189.926 104.546L189.098 105.821L188.435 106.803L188.821 107.146L188.655 107.49L188.545 107.735L187.716 108.423L186.333 110.042L185.117 110.827L184.398 110.974L182.85 111.661L181.524 112.79L180.805 113.378L180.639 113.477L179.976 113.869L179.091 114.164L178.594 114.409L177.709 115.342L176.548 116.421L175 117.501L174.005 118.138L173.674 118.335L172.181 119.267L170.578 120.199L169.527 120.788L168.255 121.573L167.426 122.211L167.372 122.26L166.1 123.045L164.773 124.027L163.225 124.861L162.285 125.352L160.681 125.843V125.989L160.737 126.824L160.681 127.56L160.184 127.314L159.244 126.97L158.581 126.726L158.305 126.628L157.365 126.431L154.104 126.039L153.108 125.843L148.022 125.106L147.966 125.254L147.69 126.235L147.525 126.774L147.414 127.02L147.083 127.953L146.806 128.836L146.584 129.621H146.308L145.977 129.768L143.488 130.259L141.72 130.651L142.383 132.467L143.599 135.803V135.852L143.71 136.001L142.825 136.294L142.051 136.589L141.167 136.884L140.614 136.932L140.005 137.177L139.176 137.62L138.79 138.061L138.015 138.306L136.909 138.257L136.633 138.306L134.865 138.748L134.477 138.846L134.256 138.748L134.201 138.454L134.146 138.061L133.87 137.57L133.814 137.423V137.276L133.87 137.08L133.704 136.835L133.482 136.932L132.432 137.374L132.1 134.527L132.045 133.939L131.989 133.154H131.824L124.029 135.215L124.306 136.491L124.692 138.159L124.913 139.288L125.024 139.778L123.752 140.024L123.476 140.073L121.044 140.22L120.988 140.318L120.877 140.465L120.767 140.661L119.164 140.367L118.943 143.017V143.949Z" name="Bümpliz-Oberbottigen" fill="#FFF5F0" stroke="#AAA8A8" stroke-width="3" stroke-miterlimit="10" stroke-linecap="round" stroke-linejoin="round"/>
<path d="M281.765 148.121L280.991 148.759L279.775 149.74L279.609 149.888L279.499 149.986L279.333 150.133L278.89 150.378L278.448 150.82L278.116 151.163L277.398 151.606L276.899 151.948L276.568 152.341L276.016 152.832L274.909 153.764L274.689 153.961L273.97 154.549L274.191 154.746L274.302 154.794V154.893L274.799 155.776L275.684 155.335L275.739 155.384L275.794 155.531L275.904 155.727L275.628 156.856L275.573 157.101H276.402L276.457 157.151H277.011L277.065 157.199H277.121L278.227 157.297L280.217 157.543L280.494 157.641V157.936L279.277 158.671L279.333 158.721L279.277 158.916L279.111 159.26L278.946 159.555L278.613 159.701L278.337 159.751L278.116 160.094L277.839 160.781V161.125L278.006 161.763L277.951 161.959L276.346 163.676L275.186 164.756L274.025 165.541L272.92 166.179L271.925 166.424L271.316 166.669L271.925 167.798L270.708 168.24L270.155 168.437L269.216 168.78L268.552 168.976L267.778 169.271L267.059 169.515L266.451 169.81L265.401 170.35L264.682 170.742L264.019 171.135L263.577 171.479L263.245 171.822L262.748 172.215L261.918 172.705L261.31 173.147L260.812 173.588L260.094 174.325L259.541 175.061L258.988 175.748L258.49 176.533L257.55 178.103V178.201H257.495L256.777 179.28L256.168 180.409L255.837 180.9L255.394 181.489L254.565 182.421L253.902 183.059L253.238 183.697L252.851 183.992L252.52 184.286L251.746 184.826L250.972 185.366L250.087 185.856L249.535 186.151L249.036 186.396L248.484 186.592L247.654 186.887L246.881 187.182L246.162 187.426L245.333 187.623L244.393 187.868L243.453 188.113L243.951 189.193L244.227 189.782L244.504 190.469L243.287 190.272L242.348 190.469L241.077 190.665L240.579 190.763L240.247 190.812L237.925 191.254L235.714 192.579L234.663 193.462L233.668 194.345L234.608 195.523L235.327 196.259L235.769 196.652L236.1 196.995L236.543 197.289L237.317 197.78L237.925 198.271L238.146 198.516L238.754 199.154L239.418 199.841L240.413 200.626L241.077 201.117L241.684 201.558L242.182 201.952L242.956 202.589L244.227 203.669L244.946 204.257L245.664 205.141L246.604 206.073L247.987 207.349L249.202 208.036L250.308 208.723L251.303 209.214L252.907 210.097L254.786 210.735L256.28 212.55L257.717 213.924L258.767 215.053L260.038 216.231L261.365 217.605L262.968 219.077L263.577 219.567L264.406 220.99L265.567 221.727L266.839 223.002L268.221 224.18L268.33 223.64V223.101L268.221 222.512L268.054 221.236V220.697L267.557 220.451L267.115 220.156L266.728 219.616L266.782 218.929L267.004 218.341L267.391 217.556L267.668 216.868L268.939 215.544L269.823 214.513L270.211 214.268L270.929 214.023L271.427 213.875H271.869L272.035 213.826L273.141 213.924H273.362L273.804 213.974L275.02 213.777L275.684 213.63L276.016 213.581L276.899 213.384L277.839 213.189L278.724 212.894L279.553 212.55L280.438 212.109L280.991 211.864H281.046L281.489 211.618L281.986 211.373L282.152 211.275L282.815 210.98L283.091 210.784L283.589 210.539L283.81 210.391L284.419 210.048L284.529 209.95L284.584 209.9L284.419 209.753L284.308 209.704L284.197 209.508L283.866 209.017L283.755 208.821L283.534 208.477L283.257 208.183L283.147 208.036L282.76 207.496L282.594 207.349L282.538 206.612V206.122L282.981 204.895L283.036 204.601L283.202 203.963V203.717L283.091 202.883L282.926 202.393L282.318 201.754L282.152 201.558V194.59L282.815 194.1L282.871 194.051L283.368 193.609H283.424L283.479 193.56L284.308 193.07L285.026 192.677L285.137 192.726L286.188 192.923H287.846L288.288 192.824L288.786 192.726H288.841L289.062 193.658L289.781 193.511L290.665 193.364L291.329 193.216L291.273 193.07L291.55 193.02V193.167L291.882 193.119L292.877 192.923L293.54 192.775L293.374 191.891L293.983 191.745L294.259 191.696L294.646 191.646L295.254 191.499H295.42L296.138 191.352L297.133 191.156H297.189L297.41 191.106L297.963 191.008L298.737 190.861L298.957 190.812V190.714L298.847 190.469L298.737 190.126L298.682 189.831L298.57 189.487L298.461 189.144V189.095L298.35 188.801L297.963 187.721L297.908 187.524L298.461 186.936L298.682 186.053L298.847 185.513L299.069 184.973L299.18 184.678V184.532L299.289 184.041L299.511 182.912H299.732L299.842 181.636L299.898 181.538L300.175 180.36L300.285 179.624L300.34 179.085L300.506 178.545L300.617 178.152L300.727 177.809L300.948 177.269L301.004 176.975L301.059 176.631V175.748L300.948 175.306L301.335 175.208L301.28 174.864L301.17 174.472L301.114 174.276L301.059 173.883L301.501 173.981H301.777L302.275 174.08H302.33L302.441 174.129H302.607L303.214 174.226L303.989 174.373L304.21 174.422H304.376L304.542 174.472L305.26 174.717L306.863 175.306L307.029 175.355H307.085L308.245 175.405H308.522L311.894 178.152L314.327 180.066L314.383 180.164L314.438 180.214L315.875 181.342L317.202 182.421L317.257 182.47L317.478 182.225L317.699 182.029L317.975 181.734L318.528 181.096L319.468 181.734L319.579 181.784L320.132 182.078L320.629 182.274L321.513 182.716L322.177 183.01L322.619 183.207L322.675 183.01L323.061 182.323L323.614 182.667L324.001 182.912L324.389 183.158L324.941 183.55L325.328 182.912L325.494 182.618L325.991 181.882L326.544 181.047L326.655 180.949L326.71 180.999L327.208 181.538L328.591 182.667L330.801 184.188L331.63 184.777L332.405 185.169L333.123 185.463L333.621 185.562H333.842L334.672 185.807L335.224 186.003L335.943 186.151L336.827 186.445L337.325 186.74L337.546 186.837L338.265 187.132L338.762 187.328L338.984 187.426L339.481 187.672L339.536 187.721L340.033 188.016L340.532 188.358L341.361 188.899L341.913 189.291L342.189 189.438L342.3 189.586V189.782L341.858 190.321L342.135 190.518L342.245 190.567L342.522 190.665H342.632L342.742 190.714L342.798 190.763H342.853L343.075 190.861L343.24 190.96L343.295 191.008L343.351 191.057L343.793 191.303H343.848L344.125 191.45L344.512 191.597L344.788 191.646L345.175 191.696H345.452L345.618 191.646H345.728L345.838 191.548L345.949 191.499L346.115 191.548L346.225 191.597L346.502 191.842L348.492 192.137L350.04 192.333H350.096L350.427 192.382L351.201 192.481L351.477 192.53L351.809 192.579L352.583 192.677L353.081 192.726L354.573 192.923L355.955 193.119L356.618 193.216L356.95 193.266L357.669 193.364L357.89 193.413L358.112 193.462V193.413L358.222 193.315L358.278 192.775L358.388 192.53L357.835 192.186L357.061 191.745L355.79 190.861L354.96 190.371L353.854 189.635L351.754 188.113L351.644 188.065L350.759 187.426L350.427 187.132L349.543 186.494L348.548 185.807L349.155 184.728L349.708 183.795L350.15 183.059L350.648 182.421L351.477 181.293L352.251 180.311L352.583 179.87L354.352 180.066L355.403 180.311L356.618 180.459L357.448 180.704L359.549 181.636L360.489 182.127L361.208 182.274L362.036 182.519L363.142 183.108L363.971 183.746L364.413 184.09L364.469 184.188L364.635 184.09L365.188 184.532L365.907 185.022L366.625 185.463L367.731 186.053L367.786 186.102L369.886 187.083L370.661 187.426L371.546 187.819L373.259 188.653L374.475 189.341L375.747 190.076L376.41 190.518L377.24 190.96L377.35 191.008L377.295 191.106L377.405 191.156L377.847 191.303L378.179 191.254H378.29L378.677 191.352L379.064 191.499L379.396 191.646L380.502 192.236L381.054 192.579L381.607 193.02L381.993 193.413L382.381 193.805L382.933 194.492L383.21 194.247L383.376 194.15L383.487 193.904L383.763 193.462L383.984 193.167L384.15 192.874L384.427 192.481L384.647 192.088L384.98 191.597L385.311 191.057L385.477 190.763L385.422 190.714L386.03 189.782L386.196 189.733H387.467L387.854 189.684H387.965L388.96 189.831L389.125 189.88H389.291L389.402 189.291L389.733 189.341H389.9L389.955 189.291L390.562 189.046L391.115 188.653L391.448 188.506L391.668 188.604L391.724 188.702H392.885L393.162 188.899L393.604 189.193L394.157 187.917L394.267 187.77L394.599 187.033V186.936L394.986 186.2L392.885 186.445L390.729 186.396L388.518 186.151L386.582 185.758L384.094 185.12L383.045 184.777L382.16 184.384L381.607 184.041L380.502 183.354L379.451 182.569L378.677 181.833L377.792 180.9L377.019 179.919L376.465 178.839L375.968 177.661L375.525 176.533L375.194 175.405L374.973 174.178L374.863 173L374.807 171.773L374.863 170.547L374.973 169.368L375.194 168.142L375.415 166.915L375.912 163.922L376.079 162.99L377.019 157.494L377.572 154.402L378.29 150.084L378.401 149.249L378.456 148.857L379.174 147.827L379.838 146.748L380.888 146.158L382.05 145.716L383.099 145.324L384.205 145.03L383.874 144.441L383.763 144.146L383.708 144L383.652 143.656L382.16 143.165L382.05 143.263L381.939 143.312L381.773 143.263L381.165 143.361L380.888 143.41L380.667 143.46H380.446L380.059 143.41L379.727 143.361V143.312H379.562L378.235 143.361V143.46H377.959L377.847 143.509H376.852V143.41H375.857L375.802 143.46L375.582 143.607L375.305 143.754L374.973 143.852L374.641 143.901H374.199L373.923 143.852L373.701 143.803L373.425 143.705V143.754L373.37 143.705L373.315 143.607L372.928 143.705L372.486 143.754L372.596 144.097L372.153 144.686L371.435 144.834L370.772 144.49L370.716 144.294V144.146L369.168 144.539L368.837 144.392L368.449 144.441L367.344 144.686H367.289L367.344 144.834L367.399 145.03L365.796 147.827L365.409 148.464L365.353 148.514L365.132 148.563L364.966 148.464L362.976 146.158L362.756 145.275L362.479 144.195L361.816 144.294L359.991 144.686L357.669 145.226H357.559L357.503 145.275H357.448L357.393 145.324L357.338 145.373L357.283 145.422L357.227 145.472L357.172 145.52V145.619H357.116L356.95 145.275L356.84 144.98L356.73 144.785L357.006 144.343L357.061 144.195L357.227 143.852L357.283 143.754V143.656L357.393 143.361L357.448 143.312L357.559 142.773L357.669 142.429L357.89 141.742L358.001 141.399L358.112 141.104L358.001 141.006L358.056 140.957V140.907L358.001 140.859H357.945V140.907L357.835 140.81L357.89 140.466L357.945 139.927L357.725 139.24L357.559 138.847L357.725 138.798L357.227 137.326L356.343 137.522L353.357 138.209L352.362 138.406L351.257 138.651L351.201 138.847V138.945H350.759L350.317 138.994L349.708 139.092H349.653L349.598 139.142H349.21L349.155 139.191H349.1L349.045 139.142L348.99 139.191H347.608L347.552 139.583L345.672 139.534L341.305 139.288L340.752 139.24L340.199 139.043L338.431 138.307L337.049 137.669L336.219 137.277L335.777 137.081L335.501 136.884L335.003 136.59L334.616 136.295L334.561 136.344L334.34 136.197L334.063 136.001L333.842 135.804L332.459 134.823L331.465 134.088L331.188 133.891L330.912 133.695L330.857 133.596L330.691 133.449L330.415 133.253L329.972 132.959L329.53 132.615L329.364 132.517L328.867 132.223L328.369 131.879L327.926 131.585L326.876 130.898L326.379 130.554L326.047 130.358L325.549 129.965L325.328 129.818L325.162 129.671L324.831 129.376L324.499 129.082L324.333 128.984L324.057 128.788L323.725 128.494L323.283 128.199L322.619 127.708L322.288 127.462L321.956 127.266L321.79 127.169L321.624 127.021L321.458 126.874L321.293 126.776L321.127 126.678L320.906 126.579L320.629 126.432L320.242 126.236L320.021 126.334L319.634 126.089L319.413 125.991L319.081 126.04H318.804L318.75 125.991H318.639L318.197 125.843L317.202 125.353L316.317 125.304L315.378 124.371H316.041L315.875 124.224L315.598 123.93L315.433 123.733V123.537L315.155 123.096L314.88 122.752H314.659L314.383 122.703L314.05 122.507L313.995 122.556L313.443 123.096L313 123.145L312.89 123.292L312.448 123.439H312.281L311.673 123.586L311.01 123.782H310.954L310.899 123.831H310.844L310.788 123.881H310.734L310.678 123.93H310.623L310.568 123.979H310.512L310.457 124.028H310.401L310.346 124.077H310.291L310.181 124.126L309.739 124.322L309.462 124.421L308.799 124.666L308.191 124.911L307.582 125.206L306.974 125.549L306.421 125.843L305.868 126.186L305.813 126.236L305.371 126.579L304.818 126.971L303.767 127.806L303.325 128.15L302.772 128.494L302.275 128.788L301.723 129.082L301.17 129.328L300.617 129.573L300.009 129.769L299.455 129.965L299.069 130.064L298.294 130.26L296.746 130.701L295.365 131.045L295.144 131.094L293.596 131.486L289.062 132.664L287.404 133.106H286.962L283.644 133.008H281.931L281.599 132.959L281.543 133.646L281.489 135.51L281.543 136.492L282.207 136.541L282.152 138.994V139.043L282.096 139.142H281.82L280.714 139.092V143.165L281.82 143.263H282.538L281.82 144.785L281.876 144.882L282.262 145.864L282.538 145.962L282.318 146.355L282.152 146.748V146.845L282.096 146.894V146.993L282.041 147.041V147.14L281.986 147.189V147.287L281.931 147.336V147.434L281.765 148.121Z" name="Mattenhof-Weissenbühl" fill="#FEE0D2" stroke="#AAA8A8" stroke-width="3" stroke-miterlimit="10" stroke-linecap="round" stroke-linejoin="round"/>
<path d="M315.148 123.094L315.424 123.535V123.732L315.59 123.928L315.867 124.222L316.032 124.369H315.369L316.309 125.302L317.193 125.351L317.691 125.596L318.188 125.842L318.631 125.989H318.741L318.796 126.038H319.073L319.404 125.989L319.626 126.087L320.013 126.333L320.234 126.234L320.621 126.43L320.897 126.578L321.118 126.676L321.284 126.774L321.45 126.872L321.616 127.019L321.782 127.167L321.948 127.265L322.279 127.461L322.611 127.707L323.274 128.197L323.716 128.492L324.048 128.786L324.325 128.982L324.49 129.08L324.822 129.374L325.154 129.669L325.32 129.816L325.541 129.963L326.039 130.357L326.369 130.552L326.867 130.896L327.918 131.583L328.36 131.877L328.858 132.221L329.356 132.516L329.522 132.613L329.964 132.957L330.406 133.251L330.682 133.447L330.848 133.595L330.904 133.693L331.18 133.889L331.456 134.086L332.452 134.821L333.834 135.803L334.055 136L334.331 136.195L334.552 136.342L334.608 136.294L334.995 136.588L335.492 136.883L335.768 137.079L336.21 137.275L337.04 137.668L338.422 138.305L340.191 139.041L340.744 139.238L341.297 139.287L345.664 139.532L347.544 139.581L347.598 139.189H348.981L349.036 139.14H349.589L349.645 139.09H349.7L350.308 138.992L350.751 138.944H351.193V138.845L351.248 138.649L352.353 138.404L353.348 138.207L356.333 137.52L357.219 137.324L356.279 134.331L356.333 134.281L356.776 134.134L357.882 133.644L358.49 134.576H358.6L358.932 134.38L359.209 134.232L359.485 134.036L361.254 132.859L361.587 132.613L361.862 132.368L362.139 132.123L362.415 131.828L362.636 131.583L362.913 131.24L363.079 130.896L363.355 130.454L362.471 129.963L362.747 129.423L362.913 129.08L363.134 128.393L363.299 127.903L365.013 127.952L365.235 127.265L365.898 126.725L366.506 126.234L368.883 124.271L369.381 123.829L369.492 123.928L370.984 122.701L371.094 122.652L371.703 122.112L370.21 120.64L369.104 119.266L368.22 117.843L367.722 116.862L367.28 115.831L366.948 114.752L366.672 113.672L366.561 112.593L366.506 111.513L366.561 111.415L366.616 110.483L366.893 109.403L367.667 106.606L368.109 104.889L371.205 93.1118L371.26 93.0135L372.366 88.647L373.251 86.3404L374.356 84.279L375.518 82.6599L376.292 81.5807L376.955 80.5499L378.005 78.8325L378.724 77.2134L380.493 74.0236L381.765 71.8154L383.644 68.5772L385.026 67.0065L387.182 65.3874L389.726 64.2583L392.379 63.5225L394.866 63.0324L396.138 63.0809L398.405 63.1792L408.301 67.3007L412.779 67.5956L416.814 65.9757L421.624 62.4918L422.895 60.6276L424.443 58.4194L429.53 53.7579L430.856 51.304L431.078 49.3907L430.359 48.2616L428.977 47.3292L427.263 46.9858L422.563 47.035L405.979 44.6302L405.813 44.581H405.647L403.711 44.2384L402.385 43.796L401.224 42.9619L400.34 41.8336L399.897 40.5578L397.575 30.0082L397.133 28.1925L396.636 26.426L396.083 24.6102L395.696 23.2853L395.641 22.1563L394.701 5.66876L394.259 3.65715L392.434 2.23392L390.444 2.13562L385.026 4.98208L382.925 8.71111L381.986 12.3418L381.653 17.2989L380.382 20.7822L376.18 26.7201L371.482 30.5475L368.22 33.1973L367.722 34.2274L367.114 35.4055L367.832 37.9079L370.099 39.6745L374.025 41.0486L379.166 38.497L380.161 38.0062H383.091L385.524 40.2145L386.408 44.4343L384.805 48.8507L381.377 51.2548L378.06 51.5989L376.844 49.7831L375.904 48.5074L372.089 45.0725L369.547 44.5326L367.059 45.1701L365.345 47.1333L364.959 47.5749L363.687 49.734L362.968 52.6289L362.747 56.6037L362.581 61.6092L362.304 66.9573L360.48 70.4905L358.877 71.8645L358.6 72.0611L355.228 72.8953L352.408 72.0611L351.801 71.227L350.86 69.9997L349.589 64.8474L349.036 62.6884L345.831 58.3702L341.905 56.0153L338.256 54.9354L334.552 54.7879L334.442 54.8371L329.742 56.4078L321.008 60.4317L317.635 62.001L310.504 62.7867L310.228 62.8358L307.463 63.2283L304.201 63.6699L294.748 67.399L285.184 71.227L264.729 69.6563L249.195 76.8694L226.749 78.5868L227.633 79.6175V79.765L227.855 79.9609L227.689 80.0592L227.855 80.2558L227.91 80.5008L228.021 80.9916L228.242 81.3349L228.463 81.6291L228.739 81.924L229.181 82.2674L229.624 82.5124L230.121 82.7582L230.177 83.3473L229.845 83.494L229.624 83.6414L229.348 83.838L229.071 84.1322L225.312 88.4504L225.09 88.7446L224.98 88.9903L225.09 89.2353L225.478 89.677L225.865 90.1678L226.252 90.6094L226.971 91.5903L227.247 91.7377L228.131 92.7685L228.573 93.406L229.126 94.1917L230.509 95.7617L231.282 96.4484L232.001 97.1358L232.056 97.1849L232.664 97.8224L233.328 98.5098L233.936 99.1965L234.157 99.3931L234.765 100.227L235.429 101.111V101.16L235.484 101.208L235.539 101.258V101.306L235.649 101.405V101.454L235.705 101.503V101.552L235.76 101.601L235.816 101.65V101.7L235.871 101.748L235.926 101.797V101.846L235.982 101.896L236.036 101.945V101.994L236.645 102.877L236.7 102.926V102.975L236.755 103.024V103.073L236.866 103.171V103.22L236.921 103.269V103.319L236.977 103.368L237.032 103.416V103.465L237.087 103.515V103.564L237.142 103.613V103.662L237.197 103.711V103.76L237.75 104.692L238.248 105.674V105.772L238.303 105.821V105.919L238.359 105.969V106.017L238.414 106.066V106.164L238.469 106.214V106.312L238.524 106.361V106.459L238.579 106.508V106.606L238.636 106.655L239.022 107.637L239.243 108.274L239.631 109.059L239.907 109.845V110.433L240.183 111.317L240.46 112.593L240.515 112.789L240.736 113.672L240.792 114.114L240.846 114.507L240.957 114.899L240.846 114.948L241.179 115.881L241.289 116.224L241.51 116.567L240.736 116.666V118.383L241.289 120.836L241.841 121.72L242.228 122.407L242.837 123.192V123.241L242.892 123.29L242.947 123.339L243.113 123.486L243.168 123.535H243.223L243.28 123.584H243.334L244.661 125.204V125.351L244.717 125.4V125.498L244.772 125.547V125.596L244.827 125.645V125.694L244.882 125.743V125.793L245.048 125.94L245.435 126.479L247.481 125.743L249.471 125.008L251.129 124.419L253.506 123.584L258.095 126.578L261.578 129.227L261.798 128.835L263.513 129.62L263.07 130.405L263.679 130.847L265.393 132.172L265.558 132.319L265.669 132.368L265.835 132.27V132.221L266.553 132.025L269.926 132.319L273.077 132.564L273.298 132.613L275.896 132.81L277.499 132.859L277.721 132.711H278.992V132.466L279.435 132.859L279.932 133.153L280.485 133.398L280.54 133.644H281.535L281.59 132.957L281.922 133.006H283.636L286.953 133.104H287.395L289.053 132.662L293.587 131.485L295.135 131.092L295.356 131.043L296.738 130.7L298.286 130.258L299.06 130.062L299.447 129.963L300 129.767L300.608 129.571L301.161 129.326L301.714 129.08L302.266 128.786L302.764 128.492L303.317 128.148L303.759 127.804L304.81 126.97L305.363 126.578L305.805 126.234L305.86 126.185L306.413 125.842L306.965 125.547L307.574 125.204L308.182 124.909L308.79 124.664L309.453 124.419L309.73 124.32L310.172 124.124L310.282 124.075H310.338L310.394 124.026H310.448L310.504 123.977H310.559L310.614 123.928H310.67L310.725 123.879H310.78L310.836 123.829H310.89L310.946 123.78H311.001L311.665 123.584L312.273 123.437H312.438L312.881 123.29L312.991 123.143L313.433 123.094L313.986 122.554L314.042 122.505L314.374 122.701L314.65 122.75H314.871L315.148 123.094Z" name="Länggasse-Felsenau" fill="#FEE0D2" stroke="#AAA8A8" stroke-width="3" stroke-miterlimit="10" stroke-linecap="round" stroke-linejoin="round"/>
</svg>
